<?xml version="1.0" standalone="no"?>
<!DOCTYPE svg PUBLIC "-//W3C//DTD SVG 20010904//EN"
 "http://www.w3.org/TR/2001/REC-SVG-20010904/DTD/svg10.dtd">
<svg version="1.0" xmlns="http://www.w3.org/2000/svg"
 width="3744.000000pt" height="1120.000000pt" viewBox="0 0 3744.000000 1120.000000"
 preserveAspectRatio="xMidYMid meet">
<metadata>
Created by potrace 1.16, written by Peter Selinger 2001-2019
</metadata>
<g transform="translate(0.000000,1120.000000) scale(0.100000,-0.100000)"
fill="#000000" stroke="none">
<path d="M3085 9178 c-57 -21 -117 -73 -165 -145 -86 -128 -646 -1258 -656
-1324 -4 -21 -4 -54 0 -72 8 -41 74 -119 131 -156 22 -14 65 -45 95 -67 30
-23 70 -45 88 -49 33 -7 43 -17 150 -153 88 -110 171 -162 294 -182 114 -18
168 2 327 120 l82 61 57 -21 c79 -30 139 -31 179 -2 17 12 63 64 101 115 85
113 92 119 183 165 93 47 119 82 119 162 0 100 -45 207 -320 765 -273 554
-372 710 -492 771 -51 26 -120 31 -173 12z m-168 -638 c39 -16 83 -30 96 -30
34 0 87 -20 87 -32 0 -7 21 -8 63 -3 34 5 79 9 100 9 20 1 37 4 37 9 0 4 3 6
8 5 25 -7 174 62 214 100 l28 25 126 -259 c69 -142 134 -277 144 -299 10 -22
28 -62 40 -90 13 -27 36 -77 52 -110 45 -91 75 -175 83 -231 7 -57 2 -64 -60
-84 -74 -23 -168 -94 -221 -167 -66 -90 -112 -133 -144 -133 -14 0 -45 9 -69
20 -81 37 -134 22 -241 -65 -129 -106 -207 -119 -335 -56 -52 26 -80 49 -130
108 -36 42 -72 93 -81 114 -14 31 -27 42 -78 63 -34 15 -86 47 -116 72 -30 25
-81 63 -112 85 -68 47 -72 63 -34 161 27 71 209 462 313 673 38 77 74 155 81
172 l11 33 33 -30 c18 -17 65 -43 105 -60z"/>
<path d="M33392 8038 c-9 -9 -12 -75 -12 -234 l0 -222 -85 -7 -85 -7 0 -373
c0 -423 -9 -385 93 -386 95 -1 122 -17 56 -32 l-26 -7 -6 -142 c-13 -265 -9
-525 8 -565 8 -19 15 -37 15 -39 0 -2 -28 -4 -62 -4 -35 0 -69 -4 -76 -9 -11
-7 -13 -67 -10 -310 3 -332 1 -321 66 -321 l32 0 2 -307 c0 -170 0 -319 -1
-332 -1 -14 -13 -38 -27 -54 l-24 -29 0 -352 c0 -306 -2 -355 -16 -374 -14
-21 -15 -98 -9 -808 7 -660 10 -788 22 -800 12 -12 89 -14 474 -14 l460 0 -2
55 c-1 30 -1 57 2 59 2 2 13 0 24 -5 11 -4 14 -8 8 -8 -21 -1 -15 -49 6 -61
11 -5 76 -10 144 -10 l124 0 14 67 c9 48 13 155 14 368 l0 300 -174 3 -174 2
6 122 c4 67 7 259 7 428 l0 307 71 7 c39 3 75 8 79 11 12 7 23 440 15 579 -7
120 -8 124 -32 135 l-26 12 7 325 c7 295 9 329 26 357 18 30 19 48 14 297 -7
341 -5 328 -55 336 -22 4 -42 11 -45 16 -4 5 8 24 25 42 l31 32 0 341 c0 196
-4 344 -9 347 -5 4 -36 9 -69 12 -51 6 -59 9 -55 24 3 10 16 21 29 24 13 4 26
16 29 29 3 12 4 177 3 367 l-3 345 -135 5 -135 5 -5 218 c-5 202 -7 220 -24
233 -26 19 -505 21 -524 2z m478 -225 c0 -93 3 -177 6 -189 5 -20 2 -21 -207
-27 -118 -4 -216 -3 -219 1 -3 4 -4 91 -2 195 l3 187 210 0 209 0 0 -167z
m176 -296 c2 -2 4 -142 6 -313 l3 -310 -250 -2 c-137 -2 -314 -5 -393 -8
l-142 -5 0 320 1 320 142 4 c142 4 628 -1 633 -6z m99 -315 c1 -275 0 -287
-17 -273 -16 14 -18 39 -18 282 0 146 3 269 7 272 25 26 28 -5 28 -281z m30
-496 c44 -19 44 -20 47 -349 l3 -267 -419 0 -418 0 7 303 c4 166 9 304 12 307
9 10 187 17 456 18 220 2 285 -1 312 -12z m-525 -769 l45 -2 3 -255 2 -255
-167 3 c-93 2 -190 7 -218 10 l-50 7 -3 250 -2 250 172 -3 c95 -1 193 -3 218
-5z m455 -117 c35 -13 48 -54 40 -120 -15 -122 -59 -163 -169 -158 -93 5 -97
12 -94 153 l3 110 35 18 c28 14 48 17 98 12 34 -3 74 -10 87 -15z m-707 -536
c1 -42 7 -85 12 -95 6 -9 7 -25 3 -35 -3 -10 -2 -15 3 -12 5 4 10 -8 11 -25 7
-78 16 -127 24 -127 5 0 9 -9 9 -20 0 -12 7 -20 16 -20 10 0 14 -6 10 -15 -3
-8 -1 -15 3 -15 5 0 14 -15 20 -32 7 -18 23 -50 36 -70 33 -49 25 -68 -30 -68
-25 0 -46 5 -49 13 -5 10 -7 10 -12 0 -3 -7 -16 -13 -29 -13 -13 0 -27 -4 -30
-10 -22 -35 -25 13 -25 309 1 244 4 319 13 315 8 -3 13 -33 15 -80z m447 -8
c60 -27 110 -81 124 -133 6 -21 11 -72 11 -113 0 -59 -5 -83 -23 -115 -29 -52
-98 -98 -171 -114 -166 -37 -267 49 -282 240 -12 148 26 227 120 249 69 17
169 11 221 -14z m323 -631 c23 -6 31 -34 10 -36 -10 0 -10 -2 0 -6 6 -2 12 -9
12 -14 0 -6 -5 -7 -11 -3 -8 5 -8 1 0 -14 6 -11 8 -27 5 -35 -3 -8 -2 -17 3
-20 9 -6 8 -296 -2 -404 -4 -40 -11 -73 -16 -73 -6 0 -7 -4 -4 -10 4 -6 -19
-10 -62 -9 -37 0 -63 3 -56 5 14 6 19 339 4 348 -12 8 -22 -84 -24 -226 -2
-88 -5 -108 -17 -108 -12 0 -12 -2 -2 -9 7 -4 -145 -11 -339 -15 -193 -4 -353
-5 -355 -3 -2 2 -1 147 3 323 l6 319 411 -2 c226 -2 421 -5 434 -8z m-52 -833
c-3 -41 -7 -195 -7 -341 -1 -146 -3 -258 -6 -248 -2 9 -11 17 -18 17 -17 0
-24 37 -28 156 -2 50 -7 97 -12 104 -6 9 -4 11 6 5 12 -7 12 -6 1 7 -7 9 -9
19 -5 21 11 7 10 148 -1 165 -4 7 -3 12 2 12 6 0 13 7 16 16 5 12 2 15 -11 10
-14 -6 -14 -4 3 16 10 13 24 26 29 30 6 5 5 8 -2 8 -7 0 -13 5 -13 11 0 7 -8
17 -17 24 -15 11 -15 15 8 42 16 20 30 28 43 25 17 -5 18 -12 12 -80z m-195
-22 c3 -30 7 -143 9 -250 1 -107 3 -216 5 -242 2 -44 1 -47 -26 -53 -16 -4
-32 -4 -37 -1 -4 2 -69 12 -143 21 -73 9 -145 21 -158 26 -16 7 -28 6 -37 -2
-8 -7 -32 -13 -54 -15 -30 -3 -40 0 -40 11 0 8 -3 15 -8 15 -4 0 -6 113 -5
251 2 295 -2 285 95 281 35 -2 66 -8 70 -15 6 -9 8 -9 8 0 0 12 24 12 36 0 4
-4 13 -2 21 4 9 8 17 8 26 1 6 -6 28 -12 47 -15 19 -2 34 -9 33 -16 -4 -17 14
-13 21 5 3 8 10 13 15 9 5 -3 22 6 38 20 17 15 38 24 53 22 23 -2 26 -7 31
-57z m537 -1047 l3 -243 -145 0 -146 0 0 245 0 246 143 -3 142 -3 3 -242z
m-886 140 c1 -43 2 -89 3 -103 0 -21 6 -26 33 -28 62 -6 166 16 185 39 25 31
21 64 -10 89 -22 17 -39 21 -94 19 -75 -2 -96 5 -78 27 8 10 36 14 101 14 86
0 91 -1 119 -29 54 -55 30 -149 -47 -186 -23 -11 -71 -20 -126 -23 l-88 -5 -2
-101 c-2 -55 -3 -125 -3 -153 0 -44 -2 -53 -17 -53 -17 0 -18 18 -18 279 0
279 1 287 33 290 4 1 8 -34 9 -76z"/>
<path d="M33545 7400 c-4 -6 -9 -114 -12 -240 l-6 -230 21 0 c12 0 22 6 22 13
13 473 13 467 -3 467 -9 0 -19 -5 -22 -10z"/>
<path d="M33661 7317 c-9 -22 -14 -73 -12 -107 1 -16 38 -33 99 -45 31 -6 33
-9 27 -38 -16 -80 -23 -83 -80 -37 -21 17 -42 30 -46 30 -5 0 -9 -16 -9 -35 0
-31 4 -36 44 -55 100 -45 128 -15 142 155 4 46 4 94 1 107 -7 28 -55 48 -115
48 -35 0 -44 -4 -51 -23z"/>
<path d="M33665 6628 c-15 -12 -36 -40 -46 -62 -36 -79 -18 -266 32 -337 10
-15 34 -34 53 -43 39 -18 132 -21 189 -5 50 13 117 80 117 115 0 26 -1 26 -48
-18 -41 -39 -55 -46 -106 -52 -141 -16 -210 54 -209 215 1 83 17 128 58 155
43 28 121 11 193 -42 10 -7 -12 -64 -24 -64 -8 0 -37 11 -66 25 -61 30 -80 31
-100 8 -17 -20 -31 -93 -22 -117 11 -28 24 -17 24 19 0 42 31 66 73 58 25 -5
27 -9 27 -54 0 -55 13 -64 29 -19 5 17 18 33 28 37 24 9 29 18 49 81 23 73 12
94 -56 110 -84 20 -163 16 -195 -10z"/>
<path d="M33950 5775 c-7 -8 -15 -45 -18 -81 -4 -57 -2 -69 13 -81 24 -17 96
-17 119 0 19 14 32 82 22 121 -11 46 -108 75 -136 41z"/>
<path d="M33647 5230 c-40 -12 -58 -29 -78 -75 -21 -45 -24 -130 -8 -190 6
-22 28 -56 49 -77 35 -35 42 -38 96 -38 73 0 116 12 165 46 47 32 63 75 57
160 -3 52 -9 70 -34 100 -52 65 -77 78 -152 81 -37 1 -80 -2 -95 -7z m81 -63
c4 -7 -3 -60 -14 -119 -8 -39 -21 -35 -26 6 -2 19 0 34 5 33 18 -4 18 21 0 25
-35 9 -58 -14 -57 -57 0 -22 -4 -43 -10 -48 -6 -4 6 -6 26 -5 21 2 36 -1 35
-7 -1 -5 -7 -9 -14 -7 -18 4 -3 -37 19 -52 18 -13 18 -14 -3 -19 -29 -8 -65
18 -78 55 -6 17 -11 60 -11 95 0 81 25 113 86 110 22 -1 41 -6 42 -10z"/>
<path d="M33614 4546 c-18 -8 -35 -20 -40 -27 -4 -8 -9 -56 -10 -109 -1 -52
-5 -134 -9 -181 -6 -70 -4 -91 9 -117 16 -31 19 -32 81 -32 37 0 65 4 65 10 0
6 -9 10 -19 10 -18 0 -19 3 -10 29 16 44 36 58 44 29 23 -79 46 -96 78 -60 23
25 21 31 -8 42 -33 13 -49 54 -35 93 5 17 9 31 8 31 -51 17 -51 48 -3 92 46
41 47 84 5 142 -46 64 -89 77 -156 48z m126 -62 c25 -24 18 -83 -14 -110 -40
-35 -81 -32 -106 9 -32 51 -23 104 20 120 23 9 83 -3 100 -19z m-34 -191 c25
-9 12 -78 -20 -108 -14 -13 -28 -35 -32 -49 -7 -30 -29 -34 -42 -8 -15 29 -33
142 -27 163 6 19 12 21 56 15 27 -4 56 -9 65 -13z"/>
<path d="M33504 3747 c-2 -7 -3 -102 -2 -212 l3 -200 65 1 c36 0 108 2 160 4
52 2 100 2 105 0 18 -5 35 0 35 9 0 5 -8 8 -17 6 -10 -1 -24 2 -30 7 -7 6 -27
8 -45 6 -23 -4 -36 0 -45 11 -9 13 -27 15 -92 13 l-81 -3 0 68 0 68 72 0 73 0
3 31 c2 20 -2 33 -11 37 -14 5 -88 -6 -119 -18 -13 -5 -18 2 -23 39 -8 54 0
96 19 96 7 0 35 -7 62 -15 68 -21 74 -19 74 15 0 24 -6 33 -26 40 -39 15 -174
13 -180 -3z"/>
<path d="M6501 7720 c-407 -40 -757 -244 -976 -570 -169 -251 -247 -590 -230
-997 l7 -162 -37 -7 c-21 -4 -161 -4 -311 -2 l-274 5 0 -107 c0 -59 3 -229 7
-378 l6 -272 293 0 293 0 -2 -2009 c-1 -1105 1 -2012 5 -2016 3 -3 184 -7 401
-8 l394 -2 5 775 c2 426 4 1334 4 2017 l-1 1243 555 2 555 3 3 343 c1 189 -1
357 -5 373 l-8 29 -555 3 -555 2 -3 80 c-2 44 2 132 8 195 26 265 75 393 199
523 63 66 90 86 166 122 132 64 233 85 396 86 156 0 231 -10 387 -53 62 -17
115 -29 117 -26 7 6 7 746 1 757 -22 35 -632 71 -845 51z m171 -289 c46 -16
123 -43 171 -61 115 -41 198 -48 300 -25 44 10 81 23 84 31 3 8 10 11 15 8 6
-4 14 0 19 7 6 9 9 -6 9 -42 0 -54 -1 -55 -27 -56 -16 -1 -82 -5 -148 -8 -136
-8 -141 -7 -380 76 -138 48 -157 52 -245 53 -59 0 -125 -6 -175 -18 -98 -22
-239 -94 -296 -150 -48 -48 -129 -168 -190 -283 -42 -80 -64 -99 -75 -69 -13
34 190 364 261 422 50 42 141 83 251 112 100 27 117 29 241 31 89 1 112 -3
185 -28z m-632 -814 c0 -5 4 -6 9 -2 12 7 -8 -67 -21 -80 -8 -7 -8 -6 -3 4 6
10 4 12 -6 5 -8 -5 -18 -9 -24 -9 -27 -1 -233 -89 -245 -104 -14 -19 -58 -41
-82 -41 -35 0 -63 39 -54 74 8 34 60 71 126 90 30 9 91 28 135 41 44 14 89 26
99 27 37 5 66 3 66 -5z m-350 -579 c69 -82 132 -205 148 -288 20 -106 23 -149
12 -192 -11 -42 -143 -314 -161 -333 -35 -35 29 206 78 294 39 70 47 121 32
210 -9 61 -65 179 -106 228 -51 60 -93 122 -93 138 0 32 31 12 90 -57z m1260
-360 c-1 -13 -20 -48 -43 -79 -80 -106 -181 -229 -188 -229 -3 0 -2 21 4 48 9
44 63 142 79 142 3 0 29 32 57 70 54 73 91 93 91 48z m-747 -94 c154 -132 217
-193 217 -211 0 -16 1 -17 -98 50 -83 55 -252 218 -252 241 0 9 5 16 11 16 5
0 61 -43 122 -96z m-774 -49 c58 -20 149 -89 163 -123 7 -15 17 -34 23 -42 23
-32 63 -149 71 -210 2 -19 14 -107 25 -195 32 -245 31 -281 -23 -486 -38 -144
-77 -249 -93 -249 -6 0 53 272 85 389 26 96 26 102 -11 332 -38 243 -56 325
-77 346 -9 9 -16 18 -14 20 18 24 -103 154 -163 174 -24 8 -80 13 -140 13 -87
-1 -106 -4 -150 -27 -61 -31 -189 -144 -172 -150 7 -3 -22 -5 -63 -5 -68 0
-71 1 -36 9 29 7 61 30 120 87 45 43 98 86 119 95 97 46 243 56 336 22z m412
-1427 c8 -156 27 -285 46 -317 22 -35 33 -80 22 -87 -37 -23 -83 127 -99 321
-6 77 -9 151 -6 165 2 14 5 31 5 38 1 8 7 12 14 10 8 -3 14 -43 18 -130z
m-261 46 c27 -70 50 -336 54 -626 4 -205 -1 -258 -18 -229 -4 5 -8 94 -11 198
-7 232 -22 478 -35 558 -11 65 -13 125 -5 125 3 0 10 -12 15 -26z m383 -1415
c3 -11 -1 -28 -9 -37 -39 -43 -95 -148 -110 -204 -13 -48 -18 -107 -18 -240
-1 -134 -4 -178 -13 -178 -22 0 -28 50 -27 205 2 226 17 287 106 418 41 60 62
71 71 36z m-510 -32 c80 -34 162 -141 200 -262 18 -59 22 -92 21 -210 -1 -152
-10 -188 -79 -340 -35 -78 -59 -105 -77 -87 -9 9 0 35 35 104 66 133 80 197
80 353 -1 173 -23 245 -96 322 -62 65 -97 86 -133 77 -17 -4 -29 -2 -35 7 -19
30 -12 38 44 48 4 0 22 -5 40 -12z m490 -1114 c-8 -21 -21 -45 -27 -53 -11
-12 -82 -131 -114 -189 -13 -23 -32 -25 -32 -3 0 73 126 282 170 282 18 0 18
-2 3 -37z"/>
<path d="M21610 7681 l-65 -6 -11 -100 c-6 -55 -16 -116 -23 -135 -13 -42 -16
-746 -2 -754 18 -12 21 -87 21 -697 l1 -630 -42 -92 c-100 -222 -139 -516
-194 -1467 -9 -146 -18 -310 -21 -365 -5 -87 -4 -107 15 -153 11 -29 21 -74
21 -100 1 -157 65 -325 162 -425 27 -29 50 -61 50 -72 0 -11 -3 -69 -7 -130
-10 -142 2 -191 50 -211 39 -16 219 -19 329 -5 76 10 123 -1 376 -92 69 -25
179 -58 245 -73 107 -25 138 -28 280 -27 88 0 214 8 280 16 562 74 635 83
1065 133 312 36 376 46 419 65 111 49 152 133 176 364 4 33 13 85 21 115 23
89 21 307 -5 410 -17 71 -21 116 -21 270 0 206 -14 461 -31 590 -12 84 -12 87
16 155 40 96 45 207 15 325 -68 271 -235 678 -346 845 -43 66 -113 130 -158
145 -17 5 -59 14 -91 18 l-60 7 -25 75 c-44 128 -90 195 -161 231 -55 28 -168
41 -282 33 -80 -5 -102 -10 -117 -26 -19 -20 -19 -20 -77 13 l-58 34 -180 0
c-201 0 -259 -11 -332 -64 -58 -42 -92 -106 -124 -233 -15 -61 -30 -112 -32
-115 -3 -2 -66 -7 -141 -10 l-136 -6 0 1056 0 1056 -26 20 c-26 20 -37 21
-368 19 -187 -1 -370 -4 -406 -7z m678 -71 l62 0 0 -148 0 -149 -97 -6 c-54
-4 -124 -7 -155 -7 -62 0 -67 -4 -42 -31 15 -17 30 -18 154 -12 l137 6 -5 -32
c-3 -19 -10 -32 -21 -32 -9 -1 -53 -3 -98 -5 -89 -3 -103 -7 -103 -31 0 -13
15 -15 110 -11 l110 4 0 -32 c0 -29 -3 -32 -37 -38 -21 -3 -57 -6 -79 -6 -54
0 -104 -10 -104 -21 0 -5 50 -9 110 -9 l110 0 0 -34 0 -34 -100 -7 c-58 -4
-107 -13 -117 -21 -17 -13 -17 -13 2 -15 37 -3 180 2 198 7 14 5 17 -1 17 -35
l0 -41 -97 -2 c-54 -1 -110 -2 -125 -1 l-27 1 -1 -175 0 -174 120 7 120 7 0
-42 0 -41 -47 0 c-104 0 -183 -12 -183 -28 0 -13 16 -14 115 -8 l115 7 0 -41
0 -40 -100 0 c-95 0 -100 -1 -100 -21 0 -21 3 -22 100 -16 l100 5 0 -39 0 -39
-94 0 c-71 0 -97 -4 -106 -15 -18 -22 4 -27 109 -23 l91 3 0 -40 0 -40 -108
-3 c-66 -3 -110 -8 -114 -15 -5 -9 24 -13 107 -15 l115 -3 0 -33 0 -33 -105
-5 c-61 -3 -111 -10 -117 -16 -9 -9 16 -12 104 -12 l116 0 7 -31 c4 -17 4 -33
1 -36 -3 -3 -57 -8 -121 -11 -103 -4 -115 -7 -115 -23 0 -17 11 -19 118 -21
l117 -3 3 -36 3 -36 -109 -7 c-61 -3 -117 -3 -126 0 -11 4 -16 0 -17 -15 -1
-12 -2 -27 -3 -33 -1 -13 47 -13 202 -3 l52 4 0 -38 0 -38 -172 -11 c-95 -6
-200 -18 -233 -27 -75 -19 -214 -85 -276 -130 l-47 -34 -6 72 c-3 40 -8 313
-11 609 l-5 536 72 6 c40 3 89 7 108 9 l35 2 5 365 c3 201 1 380 -3 397 -11
45 -32 53 -131 53 -95 0 -95 0 -80 78 6 29 10 31 58 35 28 3 168 3 311 1 143
-2 288 -4 323 -4z m-694 -247 c-3 -27 -5 -95 -4 -153 2 -58 3 -123 2 -145 0
-22 5 -44 11 -48 9 -6 9 -10 0 -14 -9 -3 -10 -10 -4 -21 5 -9 9 -55 10 -101 2
-66 -1 -87 -15 -102 -9 -10 -21 -19 -25 -19 -5 0 -7 48 -5 108 2 59 4 205 5
325 1 188 3 217 16 217 13 0 15 -9 9 -47z m738 -573 l-4 -40 -114 0 -114 0 6
28 c3 15 7 33 10 40 2 8 34 12 111 12 l109 0 -4 -40z m-4 -135 c-2 -2 -52 -5
-113 -6 -80 -2 -110 0 -109 9 1 7 2 23 3 36 1 23 3 24 102 24 55 0 104 3 107
7 4 4 8 -10 10 -30 2 -20 2 -38 0 -40z m1058 -773 c11 -6 27 -19 35 -28 10
-13 10 -16 1 -10 -7 4 -52 10 -100 13 -50 3 -90 10 -94 16 -6 9 -8 9 -8 0 0
-10 -27 -13 -107 -12 -78 1 -97 4 -68 9 l40 7 -42 2 c-29 1 -43 -3 -43 -11 0
-9 -3 -8 -10 2 -7 12 -16 11 -62 -8 -57 -24 -86 -29 -53 -10 64 38 118 46 305
44 116 -1 193 -6 206 -14z m403 -23 c36 -6 72 -16 80 -22 7 -6 22 -16 34 -22
27 -13 77 -111 77 -151 l0 -32 -127 -2 c-71 -1 -149 -3 -174 -5 l-46 -4 -18
62 c-11 34 -29 79 -42 100 -13 21 -28 49 -33 62 l-10 25 97 0 c53 0 126 -5
162 -11z m-479 -134 c16 -19 8 -124 -10 -135 -7 -5 -85 -9 -173 -10 l-160 -1
7 46 c7 57 10 61 47 81 67 34 265 47 289 19z m-1159 -172 c8 -10 23 -36 33
-58 17 -37 17 -40 0 -52 -10 -7 -24 -13 -31 -13 -7 0 -13 -4 -13 -9 0 -17 -44
-20 -61 -5 -13 11 -18 12 -21 3 -2 -7 -10 -9 -17 -5 -7 5 -10 14 -7 22 7 19
-8 18 -24 -1 -7 -8 -21 -15 -31 -15 -11 0 -19 -6 -19 -12 0 -10 -3 -9 -9 1 -5
7 -11 9 -14 3 -4 -5 12 -16 35 -25 33 -13 39 -19 30 -30 -7 -8 -10 -16 -7 -19
3 -3 -4 -13 -14 -22 -19 -17 -19 -17 -14 2 2 11 0 23 -6 27 -6 3 -11 3 -10 -2
4 -21 -2 -33 -16 -33 -8 0 -15 3 -15 8 -1 11 -81 67 -92 64 -5 -1 -7 2 -3 8 3
5 -2 13 -12 17 -21 7 -63 43 -63 54 0 4 29 22 65 39 132 63 305 90 336 53z
m2055 -44 c122 -61 222 -252 399 -768 83 -239 94 -298 71 -387 -22 -92 -37
-111 -114 -146 -54 -25 -226 -88 -239 -88 -2 0 -3 22 -3 49 0 60 -32 169 -61
205 -30 38 -71 56 -126 56 -60 0 -107 -27 -130 -74 -15 -32 -15 -39 2 -98 10
-35 21 -79 25 -99 l7 -37 -56 -11 c-67 -14 -318 -31 -453 -31 l-97 0 -5 43
c-3 23 -8 67 -11 98 -11 101 -68 159 -158 159 -52 0 -91 -16 -121 -49 -17 -19
-18 -32 -12 -146 l7 -125 -28 0 c-47 0 -159 27 -200 48 -21 11 -57 40 -79 64
-90 98 -144 233 -199 501 -61 296 -102 442 -150 537 -60 119 -112 162 -213
176 -59 8 -61 25 -4 47 50 20 88 26 233 37 566 46 1108 69 1495 65 158 -2 176
-4 220 -26z m-2286 -305 c0 -3 -13 -49 -29 -102 -37 -121 -57 -232 -71 -392
-5 -69 -13 -147 -17 -175 -3 -27 -9 -266 -12 -530 l-7 -480 -29 -75 -29 -75 2
-237 c3 -264 2 -267 -57 -207 -61 61 -73 164 -52 474 12 186 27 436 37 610 12
216 45 611 60 713 39 265 122 482 185 482 10 0 19 -3 19 -6z m437 -81 c-119
-199 -145 -303 -167 -675 -18 -308 -18 -308 -46 -318 -50 -20 -54 -10 -54 144
0 179 16 394 35 486 29 138 134 342 211 409 54 48 65 26 21 -46z m146 -415 c7
-7 12 -31 12 -53 -1 -22 3 -43 8 -46 4 -3 9 -17 11 -30 1 -14 6 -30 10 -37 6
-11 2 -107 -11 -217 -8 -68 -13 -144 -13 -178 0 -17 -4 -26 -10 -22 -5 3 -10
2 -10 -4 0 -5 5 -13 10 -16 7 -4 7 -13 0 -26 -6 -10 -7 -19 -3 -19 12 0 -20
-20 -32 -20 -5 0 -4 4 4 9 16 10 7 61 -10 61 -6 0 -9 -6 -6 -12 2 -7 -4 -29
-13 -48 -12 -24 -18 -64 -19 -130 -6 -249 -12 -339 -27 -391 -5 -17 -43 -19
-77 -4 -10 4 -21 5 -24 2 -3 -4 -15 -1 -26 4 -22 13 -29 14 -189 31 -65 6
-118 16 -118 21 0 4 -5 5 -10 2 -15 -9 -47 3 -54 21 -10 25 5 64 23 64 12 0
17 8 17 22 -1 16 7 24 32 30 18 5 30 13 26 19 -3 6 -13 8 -21 5 -9 -4 -13 -1
-10 6 2 7 10 12 16 10 7 -1 9 2 6 8 -4 6 -13 9 -21 6 -22 -8 -17 5 13 36 21
22 23 28 10 28 -21 0 -22 16 -1 24 10 4 13 13 9 26 -4 14 -2 20 9 20 11 0 14
12 13 53 -2 58 9 77 47 77 56 0 127 22 140 43 8 12 16 65 20 117 20 303 28
394 37 413 10 22 10 22 5 0 -2 -13 0 -26 5 -29 5 -3 6 -10 3 -16 -4 -7 -2 -8
4 -4 7 4 12 13 12 20 0 8 7 19 15 26 18 15 68 22 59 9 -7 -12 8 -11 40 1 14 5
26 14 26 20 0 6 -4 9 -9 5 -5 -3 -12 -1 -16 5 -10 16 22 12 39 -6 15 -14 16
-14 16 0 0 9 -4 16 -8 16 -5 0 -7 14 -4 30 4 32 25 39 45 18z m207 -575 c29
-43 61 -87 71 -99 11 -11 16 -23 13 -27 -4 -3 -3 -14 1 -24 5 -10 7 -21 7 -25
-1 -5 2 -8 7 -8 5 0 12 -9 16 -19 3 -11 21 -29 40 -40 35 -20 171 -53 209 -50
40 3 45 -1 51 -38 18 -121 26 -142 63 -173 63 -52 166 -49 231 6 l30 25 -2
122 c-1 67 2 136 6 153 8 30 11 32 55 32 109 1 137 4 151 15 12 9 13 9 7 0 -5
-9 5 -12 38 -10 24 1 42 5 39 10 -2 4 0 7 6 7 5 0 13 -5 16 -10 4 -7 13 -7 26
0 15 9 19 7 19 -7 0 -15 2 -15 15 3 11 13 14 14 13 4 -2 -8 3 -14 11 -12 7 1
20 -3 28 -10 14 -11 15 -10 9 12 l-7 25 13 -23 c11 -18 16 -20 27 -10 11 11
14 10 18 0 4 -10 9 -8 19 5 9 12 13 13 14 5 0 -8 5 -10 12 -6 8 5 9 2 5 -10
-5 -13 -3 -17 7 -13 10 4 16 -4 19 -26 25 -142 43 -186 93 -226 52 -41 151
-39 194 4 44 43 45 48 49 165 1 66 8 121 14 129 17 20 50 30 65 19 7 -7 12 -7
12 -1 0 5 12 15 26 22 23 10 26 9 31 -9 6 -23 28 -27 36 -6 4 11 1 13 -11 10
-14 -5 -15 -4 -2 5 20 14 47 14 56 -1 4 -7 3 -8 -4 -4 -7 4 -12 2 -12 -3 0
-20 31 -11 40 12 7 18 9 15 9 -21 1 -24 4 -41 9 -38 4 2 8 -12 9 -32 1 -21 5
-93 9 -162 3 -69 6 -144 5 -168 -1 -27 3 -41 9 -37 5 3 10 1 10 -4 0 -6 -4
-11 -8 -11 -4 0 -8 -19 -9 -43 -1 -23 -2 -47 -3 -52 -2 -6 -2 -30 -1 -54 1
-33 4 -42 15 -38 11 5 15 -13 20 -86 4 -51 5 -110 4 -131 -3 -42 -26 -63 -26
-24 -1 66 -12 151 -23 164 -6 8 -8 14 -4 14 4 0 -3 9 -16 21 -13 11 -18 17
-10 13 8 -4 3 8 -11 27 -15 19 -29 45 -33 59 -9 37 -102 109 -176 137 -59 22
-73 23 -194 18 -71 -3 -150 -8 -175 -10 -169 -15 -395 -31 -695 -50 -138 -8
-250 -20 -280 -29 -74 -23 -144 -95 -172 -177 -20 -58 -22 -88 -25 -319 -3
-258 5 -409 24 -443 5 -10 7 -25 4 -33 -3 -8 -1 -14 4 -14 5 0 16 -15 25 -32
22 -45 90 -91 140 -94 88 -6 281 -15 295 -14 8 0 38 1 67 3 28 1 55 5 59 10
12 11 24 8 22 -5 -2 -8 8 -13 24 -12 15 0 25 -3 22 -7 -2 -4 4 -10 13 -13 10
-2 4 -3 -14 -1 -24 2 -34 -1 -38 -15 -3 -10 -13 -17 -23 -15 -9 1 -22 -1 -28
-6 -5 -5 -26 -11 -45 -13 -19 -3 -45 -8 -59 -12 -14 -3 -51 -8 -82 -9 -32 -2
-72 -8 -90 -13 -58 -18 -149 -26 -305 -26 l-153 -1 -25 58 c-14 32 -23 63 -20
67 3 5 -1 38 -9 74 -9 35 -19 125 -23 198 -10 172 -2 1451 9 1508 3 14 6 35 7
48 2 37 17 26 71 -55z m-522 -668 c104 -27 122 -37 122 -69 0 -32 -6 -37 -123
-115 -99 -65 -135 -79 -124 -48 13 37 -30 55 -208 84 -46 8 -50 11 -46 33 5
38 48 117 73 135 31 22 176 13 306 -20z m2160 21 c56 -29 117 -111 126 -168
l5 -35 -52 -11 c-71 -15 -175 -29 -347 -47 -295 -30 -382 -35 -699 -42 l-324
-6 8 119 c4 65 8 120 9 121 1 1 69 7 152 12 267 18 848 61 874 65 73 10 223 5
248 -8z m-2052 -365 c0 -58 4 -214 9 -347 l8 -241 -28 -7 c-43 -11 -155 5
-225 31 -8 3 -23 7 -33 8 -9 1 -30 14 -45 28 -16 15 -32 27 -36 27 -5 0 -32
25 -62 55 -65 66 -70 95 -21 119 21 10 26 16 14 16 -17 0 -17 2 -3 15 14 14
18 14 45 0 23 -12 31 -12 37 -2 4 6 4 9 -1 5 -5 -5 -15 1 -22 12 -8 11 -19 18
-24 15 -5 -4 -9 1 -9 10 0 11 5 15 15 11 8 -3 15 -1 15 5 0 6 9 8 21 4 20 -7
20 -6 6 17 -8 12 -13 33 -11 46 3 16 -1 22 -14 23 -14 0 -14 2 3 9 11 5 14 9
7 9 -7 1 -11 5 -8 10 4 5 2 11 -4 13 -6 2 -6 8 0 18 8 12 16 8 42 -23 29 -34
36 -37 58 -29 37 14 59 43 84 112 21 59 27 66 85 101 94 57 96 55 97 -70z
m204 10 c-8 -16 -8 -21 2 -21 9 0 13 -23 15 -83 0 -45 2 -91 2 -102 1 -11 0
-58 -1 -105 -2 -47 0 -107 3 -135 5 -35 2 -59 -8 -78 -8 -16 -12 -35 -9 -43 3
-8 -1 -17 -9 -20 -8 -4 -12 -10 -9 -15 10 -17 -12 -9 -29 11 -17 21 -37 27
-37 11 0 -5 7 -11 15 -15 8 -3 15 -11 15 -17 0 -7 -8 -4 -21 7 -19 17 -20 28
-17 146 2 70 7 128 11 128 5 0 6 4 2 9 -12 21 -12 70 1 75 8 3 14 -1 14 -11 0
-9 3 -14 6 -10 3 3 3 15 -1 28 -5 16 -9 18 -15 8 -6 -9 -8 -2 -8 18 1 22 7 33
19 36 21 6 26 -8 7 -16 -8 -3 -6 -6 5 -6 25 -1 21 28 -5 39 -21 8 -10 15 15
11 5 -1 6 3 3 8 -3 5 1 14 9 21 11 9 12 17 3 36 -9 20 -9 27 2 34 11 7 11 11
1 23 -9 11 -9 17 0 22 8 6 8 9 -1 15 -8 5 -6 12 7 25 16 17 18 17 21 2 2 -9
-2 -25 -8 -36z m1972 -53 c5 -139 -9 -333 -27 -388 -14 -43 -21 -50 -68 -70
-32 -13 -89 -25 -147 -30 -115 -11 -203 -21 -210 -25 -3 -2 -52 -6 -110 -10
-58 -4 -161 -15 -230 -25 -167 -25 -296 -34 -465 -35 l-140 0 3 185 c5 260 10
372 19 381 5 4 24 15 43 23 l35 14 -3 -166 c-3 -153 -1 -170 17 -199 22 -35
63 -49 116 -39 60 12 65 30 65 222 l0 172 29 -11 c29 -11 234 -1 496 23 55 5
159 14 230 20 185 15 214 19 270 34 28 8 55 15 62 15 8 1 13 -28 15 -91z
m-2817 -451 c3 -6 -3 -36 -14 -66 -19 -54 -19 -55 2 -83 11 -15 24 -28 28 -28
4 0 7 23 7 51 0 27 2 53 6 56 8 9 106 -93 106 -110 0 -22 -23 -36 -56 -37 -92
0 -111 2 -132 16 -21 14 -23 21 -17 62 11 82 34 152 51 152 8 0 17 -6 19 -13z"/>
<path d="M21988 7550 c-14 -8 -18 -24 -18 -66 0 -48 4 -60 29 -85 26 -25 37
-29 85 -29 58 0 88 18 102 63 9 30 -4 82 -27 103 -24 22 -143 31 -171 14z"/>
<path d="M22746 2504 c-3 -9 -6 -28 -6 -44 0 -16 -7 -36 -16 -44 -8 -9 -11
-16 -5 -16 6 0 10 -3 9 -7 0 -5 2 -16 7 -26 4 -9 3 -23 -3 -30 -8 -10 -6 -13
9 -13 10 0 19 6 19 13 0 7 7 10 15 7 11 -4 12 -11 5 -24 -7 -13 -6 -19 3 -23
22 -8 35 3 29 25 -3 14 -1 19 6 14 7 -4 12 -2 12 3 0 6 -6 11 -12 11 -9 0 -8
4 2 10 20 13 60 13 60 0 0 -5 -6 -10 -12 -10 -9 0 -8 -3 2 -9 18 -12 33 -4 23
12 -4 7 2 5 12 -3 17 -14 18 -13 12 2 -4 11 -2 17 6 15 6 -1 13 8 15 21 3 17
-2 25 -17 29 -11 3 -23 14 -26 24 -6 19 -20 24 -60 21 -19 -2 -19 -1 -2 12 20
16 9 30 -13 16 -15 -9 -62 9 -54 21 3 5 1 9 -4 9 -6 0 -13 -7 -16 -16z"/>
<path d="M14335 7218 c-9 -23 -1 -816 8 -825 5 -4 1479 -8 3275 -8 l3267 0 3
393 c1 245 -1 400 -8 411 -9 17 -28 19 -192 25 -101 3 -1570 9 -3265 12 -2664
5 -3084 4 -3088 -8z m563 -160 l3 -108 34 0 35 0 0 99 c0 103 5 116 45 116 18
0 21 -9 26 -105 4 -58 7 -106 8 -107 0 -2 12 -3 26 -3 25 0 25 1 25 88 0 120
4 132 46 132 l34 0 0 -98 c0 -55 3 -134 7 -176 l6 -77 31 3 31 3 3 173 2 172
30 0 c17 0 31 -6 32 -12 0 -7 2 -17 3 -23 2 -5 3 -47 4 -93 l1 -83 33 3 32 3
1 75 c2 136 0 130 38 130 l34 0 7 -105 7 -105 27 0 28 0 6 95 c3 52 8 98 11
103 3 5 19 7 36 4 l30 -4 0 -72 c0 -103 6 -118 44 -114 l31 3 5 95 c5 90 6 95
28 96 l22 1 0 -173 0 -174 34 0 35 0 3 164 c2 91 5 167 8 169 3 3 19 7 35 9
l30 3 5 -107 c3 -58 8 -110 12 -113 4 -4 19 -5 33 -1 24 6 25 9 25 94 0 120 5
134 44 130 l31 -3 5 -105 5 -105 30 0 30 0 5 105 c5 104 5 105 30 105 25 0 25
-1 30 -105 l5 -105 30 0 30 0 5 100 5 100 33 3 32 3 0 -175 0 -176 28 0 29 0
6 113 c4 61 7 140 7 173 0 61 0 62 31 68 17 3 35 3 40 0 5 -3 9 -49 9 -104 0
-103 3 -110 51 -110 17 0 19 8 19 89 0 112 3 121 46 121 l34 0 0 -99 c0 -94 1
-99 23 -105 47 -12 47 -12 47 104 l0 110 29 0 c25 0 29 -4 35 -37 3 -21 6 -66
6 -100 0 -53 3 -64 21 -73 38 -21 47 -7 42 63 -3 36 -3 81 1 101 6 33 10 36
42 36 l36 0 -4 -172 -3 -173 30 0 c29 0 30 2 37 55 3 30 7 91 8 135 0 44 4 98
8 120 7 36 10 40 37 40 l30 0 3 -102 3 -103 33 0 c32 0 34 2 40 46 3 26 6 71
6 100 l0 54 35 0 35 0 0 -95 c0 -85 2 -95 21 -105 41 -22 49 -7 49 88 0 95 12
127 46 120 17 -3 19 -14 22 -111 l3 -108 32 3 32 3 5 105 c5 100 6 105 28 108
22 3 22 3 22 -146 0 -82 3 -164 6 -181 6 -27 10 -31 40 -31 l34 0 0 175 0 175
40 0 40 0 0 -100 0 -100 35 0 35 0 0 101 0 100 28 -3 27 -3 5 -105 c5 -101 6
-105 29 -108 13 -2 28 2 32 10 5 7 9 57 9 111 0 96 0 97 24 97 22 0 26 -6 30
-42 4 -24 7 -72 9 -108 2 -63 3 -65 30 -68 l27 -3 0 110 c0 60 4 112 9 115 5
4 16 3 25 0 13 -5 16 -22 16 -83 0 -108 9 -151 30 -151 24 0 30 28 30 136 0
83 2 92 20 97 11 3 22 1 25 -3 9 -15 -13 -252 -25 -264 -14 -14 -13 -69 2 -84
17 -17 57 -15 64 3 3 8 11 88 17 177 l12 163 32 3 32 3 3 -98 3 -98 38 -3 37
-3 0 100 0 101 30 0 30 0 0 -100 c0 -93 1 -100 20 -102 58 -5 55 -10 60 97 5
92 7 100 26 103 27 4 34 -19 34 -119 0 -81 5 -89 54 -89 21 0 21 2 18 106 l-4
105 38 -3 39 -3 2 -150 c3 -188 5 -195 43 -195 16 0 32 6 37 12 4 7 6 86 4
175 l-3 163 36 0 36 0 0 -101 0 -101 51 5 c28 3 54 8 57 11 11 11 15 166 4
166 -11 0 -18 -23 -28 -97 -3 -29 -10 -53 -14 -53 -22 0 -22 115 0 150 4 7 31
15 59 18 l50 4 3 -98 3 -99 33 -3 32 -3 0 88 c0 99 7 116 41 111 23 -3 24 -6
27 -100 2 -86 5 -98 22 -103 30 -9 40 2 40 44 0 21 3 66 6 100 7 60 8 61 36
61 l30 0 -7 -175 -7 -175 29 0 c28 0 31 3 37 48 4 26 9 103 13 170 7 132 10
140 58 128 25 -6 25 -8 25 -105 0 -98 0 -99 26 -105 44 -11 53 7 56 112 3 96
3 97 28 97 25 0 25 -1 30 -100 l5 -100 38 -3 37 -3 0 99 c0 89 2 100 19 105
34 8 40 -7 43 -103 l3 -95 38 -3 37 -3 0 88 c0 48 4 94 9 101 5 8 21 12 37 10
27 -3 29 -6 29 -43 1 -22 2 -97 3 -167 l2 -128 34 0 c23 0 36 6 40 17 4 9 6
82 5 161 -1 109 2 147 12 153 24 15 29 -2 29 -97 0 -52 4 -94 9 -94 16 0 21
29 21 115 0 46 4 86 8 89 22 13 32 -17 38 -117 7 -110 8 -112 51 -101 21 6 23
12 25 113 3 106 3 106 28 106 25 0 25 0 28 -107 l3 -108 33 0 c41 0 46 12 46
128 0 81 0 82 25 82 25 0 25 -1 25 -79 0 -100 11 -131 45 -131 l25 0 0 105 0
105 38 0 39 0 6 -97 c3 -54 1 -132 -4 -173 -5 -41 -12 -107 -16 -146 -5 -69
-5 -71 18 -77 31 -8 83 -9 103 -1 12 5 16 21 16 64 0 78 -13 110 -44 110 -14
0 -27 3 -29 8 -2 4 2 34 9 67 7 33 13 102 13 153 l1 93 143 -3 142 -3 3 -348
c1 -223 -1 -346 -7 -342 -6 3 -1453 6 -3217 7 l-3207 2 6 231 c4 126 7 281 7
343 l0 112 116 0 117 0 -7 -167 c-3 -93 -9 -198 -12 -234 l-6 -66 33 -7 c19
-3 48 -2 64 2 30 8 30 9 33 84 2 67 0 79 -18 96 -19 18 -20 28 -18 158 l3 139
32 3 32 3 3 -103 3 -103 33 -3 32 -3 0 95 c0 111 5 128 34 124 20 -3 21 -10
24 -110z"/>
<path d="M2395 6351 l-40 -6 -8 -270 c-4 -148 -6 -1054 -5 -2012 2 -1413 5
-1744 16 -1755 10 -10 167 -13 797 -13 431 0 787 4 792 8 4 5 10 917 11 2026
l4 2018 -21 6 c-34 9 -478 6 -451 -3 24 -8 23 -8 -8 -9 -20 -1 -31 3 -27 9 7
11 -988 12 -1060 1z m418 -756 c2 -374 1 -688 -1 -697 -2 -10 -12 -17 -21 -16
-9 1 -27 0 -40 0 -20 -2 -21 -4 -11 -17 7 -8 20 -15 30 -15 10 0 22 -6 28 -12
7 -9 11 -424 13 -1238 l4 -1225 -190 2 -190 2 -3 91 -3 90 78 1 c43 0 96 3
118 7 35 6 40 11 43 36 l4 29 -121 -5 -121 -5 0 48 0 49 63 0 c90 0 107 7 107
41 l0 29 -80 0 -80 0 0 55 c0 37 4 55 13 56 142 10 150 13 145 54 -3 18 -12
20 -80 23 l-78 3 0 44 0 45 126 0 125 0 -3 33 -3 32 -122 3 -123 3 0 79 0 80
113 0 c121 0 152 10 145 46 -3 17 -16 20 -131 28 l-127 8 0 59 0 59 85 0 85 0
0 40 0 40 -52 1 c-126 4 -113 -4 -116 67 l-3 62 53 0 c29 0 90 3 136 7 l82 6
0 33 0 34 -135 0 -135 0 0 80 0 80 95 0 95 0 0 40 0 40 -95 0 -94 0 -3 63 -3
62 105 10 105 10 0 35 0 35 -102 -4 -101 -3 -4 65 -3 66 118 7 117 7 0 33 0
33 -112 3 -113 3 -5 62 c-5 61 -5 62 24 67 16 3 57 6 92 6 54 0 65 3 74 21 23
41 8 49 -95 49 l-95 0 0 60 c0 69 -9 64 135 77 83 7 91 10 104 35 9 15 13 29
10 32 -3 3 -61 9 -129 13 l-123 8 -4 59 -4 58 128 -3 128 -4 3 32 c4 39 -3 41
-123 44 -130 4 -125 1 -125 74 l0 62 82 2 c45 1 84 4 86 5 1 2 4 16 5 32 l2
29 -87 3 -86 3 -4 58 -3 59 110 9 110 8 0 35 0 35 -112 3 -113 3 0 58 0 58 53
7 c28 3 100 6 160 6 59 0 107 3 108 8 0 4 2 17 3 29 1 12 0 27 -4 33 -4 6 -67
10 -162 11 l-157 0 1 75 2 74 98 0 98 0 0 35 0 34 -97 3 -98 3 -1 62 c-1 73
-1 73 119 73 l77 0 0 35 0 35 -100 0 -100 0 0 70 0 70 168 3 c92 1 177 3 190
2 l23 0 2 -680z m607 -1270 l0 -1945 -260 0 -260 0 -2 1941 c-2 1067 -1 1943
1 1945 2 2 121 4 263 4 l258 0 0 -1945z m450 15 c0 -1061 3 -1935 6 -1944 5
-14 -15 -16 -184 -16 l-190 0 1 1945 2 1945 183 -1 182 0 0 -1929z"/>
<path d="M26375 6181 c-33 -10 -75 -25 -94 -35 -28 -15 -32 -21 -26 -44 15
-63 15 -63 -90 -120 -139 -75 -310 -200 -427 -311 -103 -97 -244 -275 -318
-400 -84 -141 -160 -347 -207 -555 -25 -112 -27 -139 -27 -351 -1 -200 2 -245
22 -345 82 -415 289 -778 599 -1054 105 -92 294 -217 428 -282 175 -84 255
-107 613 -175 60 -12 62 -17 38 -131 -29 -136 -46 -148 -318 -227 -98 -28
-195 -59 -215 -70 -48 -24 -149 -130 -168 -175 -19 -46 -19 -91 1 -110 14 -14
105 -16 850 -16 821 0 834 0 854 20 44 44 13 128 -79 221 -75 75 -128 100
-296 139 -215 50 -241 68 -285 196 -26 73 -26 131 -2 138 94 28 387 86 390 77
2 -6 12 -21 21 -33 18 -21 21 -21 74 -8 31 7 73 23 94 35 32 18 38 26 36 51
-4 46 -71 243 -103 301 l-29 51 106 63 c59 35 141 88 182 120 95 71 231 212
300 309 113 161 218 408 262 622 19 91 20 125 16 298 -5 163 -10 213 -31 305
-59 248 -165 433 -385 674 -230 252 -522 413 -857 472 -159 28 -452 31 -564 5
-142 -32 -127 -34 -135 15 -4 24 -16 67 -27 94 -32 85 -111 236 -128 244 -8 5
-41 1 -75 -8z m39 -382 c14 -17 26 -34 26 -39 0 -5 -48 -36 -107 -70 -156 -89
-255 -163 -355 -263 -212 -213 -319 -410 -401 -737 -29 -117 -31 -137 -32
-305 0 -270 35 -439 135 -651 271 -576 836 -918 1470 -891 124 6 255 24 338
47 38 10 45 1 40 -51 -3 -30 -8 -35 -48 -50 -157 -58 -520 -73 -720 -30 -305
65 -583 197 -794 377 -263 225 -472 602 -530 959 -75 458 40 909 319 1251 113
139 268 286 382 362 82 55 209 122 233 122 10 0 30 -14 44 -31z m530 -244 c42
-18 45 -34 16 -96 -11 -24 -20 -53 -20 -64 0 -17 -8 -20 -52 -23 -28 -2 -60
-8 -71 -14 -27 -14 -108 -76 -130 -99 -19 -21 -64 -35 -75 -25 -3 4 1 44 10
89 13 62 15 92 7 126 -13 60 -6 77 39 85 20 3 64 12 97 20 80 19 135 19 179 1z
m885 -10 c36 -18 135 -100 233 -190 165 -153 345 -438 392 -623 20 -75 20 -79
-1 -60 -10 9 -54 35 -98 58 -44 24 -89 48 -100 55 -11 6 -35 17 -53 23 l-33
11 3 -37 c3 -34 7 -38 78 -74 41 -21 77 -44 81 -50 25 -40 -118 -203 -164
-185 -6 2 -39 48 -71 101 -60 96 -140 196 -157 196 -50 0 104 -300 172 -336
22 -11 46 -13 94 -8 54 6 66 4 71 -9 11 -29 -26 -114 -97 -223 -38 -59 -70
-114 -70 -123 -1 -9 -1 -50 0 -91 2 -71 0 -79 -44 -163 -25 -49 -61 -113 -80
-142 -18 -30 -39 -72 -45 -94 -13 -49 -49 -76 -120 -93 -50 -11 -54 -11 -70
10 -10 12 -40 86 -66 164 l-47 141 17 46 c25 70 20 99 -33 202 -26 51 -54 111
-60 131 -15 45 -63 88 -98 88 -14 0 -62 -8 -108 -17 -100 -21 -141 -12 -197
42 -62 61 -83 116 -83 220 0 81 3 95 29 138 36 61 179 213 220 234 17 9 56 18
86 20 33 2 76 14 107 29 29 15 60 24 68 20 23 -8 18 19 -8 50 -27 31 -37 32
-179 17 -48 -5 -92 -13 -97 -18 -5 -6 -16 -36 -25 -67 -13 -46 -21 -58 -37
-58 -27 0 -75 26 -82 44 -6 15 28 67 82 124 24 25 31 42 31 72 0 50 18 60 110
60 39 0 81 5 93 11 43 23 98 72 113 101 14 27 14 32 -1 54 -25 39 -45 41 -72
8 -13 -16 -29 -36 -36 -44 -7 -8 -21 -27 -30 -42 -13 -21 -26 -28 -48 -28 -91
0 -91 53 1 177 61 83 71 88 120 63 44 -22 150 -33 187 -19 13 5 37 29 55 54
18 25 33 45 35 45 2 0 17 -7 32 -15z m-1418 -105 c15 -7 37 -26 49 -42 21 -28
21 -30 4 -49 -9 -10 -23 -19 -29 -19 -7 0 -27 -14 -44 -32 -23 -24 -31 -28
-31 -15 0 9 -7 17 -15 17 -8 0 -15 7 -15 16 0 20 -37 10 -68 -20 -23 -23 -38
-66 -21 -66 5 0 9 -8 9 -17 0 -11 13 -2 37 27 l37 43 23 -29 c13 -16 28 -34
33 -41 5 -6 30 -42 55 -79 76 -114 58 -140 -81 -109 -29 6 -31 5 -48 -39 -10
-27 -25 -48 -38 -52 -30 -9 -137 -84 -173 -122 -31 -31 -85 -162 -85 -205 0
-26 -26 -21 -92 19 -54 33 -62 35 -84 23 -13 -7 -43 -37 -66 -67 -49 -63 -57
-115 -23 -152 l19 -21 13 26 c8 14 21 25 31 25 14 0 14 2 3 9 -12 7 -12 13 0
40 14 30 29 41 29 20 0 -5 5 -7 10 -4 6 4 8 11 5 16 -14 21 35 7 53 -16 21
-26 19 -66 -2 -64 -25 3 -37 -2 -30 -12 5 -9 -1 -10 -22 -5 -23 6 -27 5 -16
-5 6 -7 12 -27 12 -44 0 -16 7 -43 16 -60 23 -43 44 -105 36 -105 -27 0 -125
74 -224 169 -68 65 -69 69 -38 237 35 194 105 370 209 525 72 109 219 245 306
286 37 17 216 12 256 -7z m-253 -1159 c20 -10 61 -21 91 -25 79 -10 123 -38
185 -115 66 -83 91 -99 221 -141 55 -18 104 -36 108 -40 4 -3 -6 -38 -22 -76
-16 -38 -41 -111 -56 -163 -27 -98 -76 -185 -122 -219 -22 -16 -27 -30 -38
-123 -7 -57 -15 -130 -18 -162 -2 -32 -7 -61 -11 -64 -13 -13 -122 113 -158
182 -20 39 -55 129 -78 201 l-41 131 -69 62 c-78 69 -143 169 -160 243 -9 41
-6 62 16 145 50 189 67 207 152 164z"/>
<path d="M27783 4945 c-34 -15 -138 -18 -164 -4 -21 11 -65 -13 -61 -34 2 -10
-4 -17 -13 -17 -18 0 -20 -30 -2 -54 12 -16 33 -18 190 -20 129 -2 177 0 177
9 0 30 -34 107 -53 120 -26 18 -33 18 -74 0z"/>
<path d="M10585 6135 c-114 -12 -444 -50 -825 -95 -96 -11 -269 -32 -385 -46
-185 -23 -266 -27 -680 -34 -323 -6 -484 -12 -514 -21 -26 -7 -60 -28 -82 -50
-37 -37 -46 -63 -64 -180 -5 -34 -8 -36 -58 -48 -68 -16 -120 -53 -142 -101
-17 -37 -17 -42 -1 -82 21 -55 70 -89 137 -96 27 -2 51 -7 53 -11 2 -3 5 -49
7 -101 l4 -95 -61 0 c-51 0 -66 -5 -97 -28 -97 -73 -77 -177 39 -206 108 -27
98 -15 108 -123 5 -53 6 -103 3 -111 -3 -9 -33 -18 -81 -26 -64 -10 -79 -17
-101 -42 -33 -40 -40 -70 -25 -116 22 -67 48 -84 153 -98 l47 -6 0 -113 0
-112 -60 -12 c-68 -12 -113 -40 -135 -82 -47 -91 27 -189 148 -196 l51 -2 -3
-99 c-1 -54 -4 -101 -7 -104 -2 -3 -31 -14 -64 -23 -141 -40 -190 -154 -99
-230 27 -23 50 -32 132 -50 l27 -6 0 -99 0 -99 -49 -7 c-98 -13 -168 -83 -156
-154 9 -54 39 -78 118 -95 38 -7 71 -16 74 -20 11 -10 22 -98 22 -174 l1 -72
68 -73 c77 -84 156 -157 233 -216 30 -22 65 -50 79 -61 25 -20 41 -20 1497
-24 1238 -3 1474 -1 1484 10 8 10 12 457 13 1698 l1 1684 -24 26 c-13 14 -62
41 -110 61 -87 37 -121 59 -121 80 0 20 -77 87 -177 154 -69 47 -104 77 -118
103 -20 38 -20 38 -80 37 -33 -1 -114 -7 -180 -14z m194 -1617 c0 -1432 -3
-1686 -21 -1703 -11 -12 -79 -23 -238 -40 -85 -9 -288 -32 -450 -51 -162 -19
-403 -44 -535 -55 -132 -12 -249 -25 -260 -29 -53 -22 -861 -15 -1060 10 -127
15 -124 10 -127 205 l-3 160 57 3 c55 3 59 1 101 -38 50 -45 68 -48 115 -20
92 56 92 177 -1 227 -30 16 -95 19 -241 10 l-28 -2 -2 162 c-2 114 1 164 9
167 25 9 96 -13 136 -42 72 -53 159 -39 193 32 22 47 20 75 -9 118 -50 74
-148 95 -267 58 -34 -11 -64 -20 -65 -20 -2 0 -3 72 -3 159 0 179 -4 171 79
171 39 0 55 -6 82 -30 44 -37 71 -44 113 -26 39 16 76 77 76 124 0 39 -38 93
-80 115 -29 15 -53 18 -147 14 l-113 -3 0 163 0 163 38 0 c23 0 56 -11 87 -30
95 -56 181 -34 203 52 10 38 9 48 -11 87 -42 86 -111 108 -216 72 -101 -35
-97 -39 -106 102 -4 67 -8 138 -9 157 l-1 35 65 3 c54 2 70 -1 89 -17 67 -58
190 -19 206 64 8 40 -30 113 -74 142 -41 28 -113 30 -187 8 -27 -8 -54 -15
-60 -15 -16 0 -27 302 -11 312 31 19 81 8 117 -26 36 -35 53 -40 126 -38 115
5 141 140 42 216 -51 37 -110 49 -212 41 l-89 -7 6 46 c4 25 15 63 26 85 37
72 95 81 545 81 344 0 528 8 716 30 47 5 211 25 365 45 154 19 397 46 540 60
143 14 296 29 340 34 44 4 97 9 118 10 l37 1 -1 -1552z m122 1436 c11 -13 13
-291 14 -1599 0 -1583 0 -1584 -21 -1611 -39 -53 -81 -65 -262 -79 -373 -30
-514 -37 -559 -29 -44 7 -36 9 97 25 80 9 192 22 250 28 184 20 322 42 360 57
22 9 43 26 50 42 19 41 33 1085 25 1950 -7 807 0 1232 20 1232 7 0 19 -7 26
-16z m135 -68 c19 -14 19 -42 19 -1603 l0 -1589 -27 -41 c-46 -70 -92 -81
-413 -103 -232 -16 -731 -40 -815 -40 -71 1 -73 1 -44 14 34 15 180 29 549 51
352 22 564 44 603 62 18 9 41 27 52 41 20 24 20 46 20 1412 0 1454 5 1810 25
1810 6 0 20 -6 31 -14z m118 -138 c9 -45 15 -3128 6 -3160 -18 -62 -42 -76
-143 -83 -51 -3 -110 -2 -132 3 l-40 10 40 1 c104 3 186 44 221 111 18 33 19
83 20 1150 0 1668 3 1990 14 1990 5 0 12 -10 14 -22z m-2916 -158 c2 -13 -16
-18 -93 -28 -107 -13 -162 -32 -172 -59 -9 -26 -24 -33 -45 -22 -23 12 -23 51
0 71 9 8 51 21 92 28 41 7 93 16 115 20 59 12 99 7 103 -10z m-10 -492 c7 -7
12 -20 12 -30 0 -16 -10 -18 -82 -18 -46 0 -108 -7 -138 -15 -30 -8 -70 -15
-88 -15 -30 0 -33 2 -26 23 12 42 24 47 103 48 42 0 99 4 126 9 74 11 80 11
93 -2z m-8 -1003 c0 -27 1 -27 -150 -30 -19 0 -45 -6 -57 -13 -12 -7 -30 -12
-40 -12 -10 0 -30 -6 -45 -14 -30 -16 -38 -12 -38 20 0 37 26 54 83 55 29 0
70 4 92 8 22 5 66 9 98 10 54 1 57 0 57 -24z m18 -481 c12 -8 22 -22 22 -30 0
-13 -8 -14 -47 -7 -27 4 -73 8 -103 7 -69 -1 -196 -39 -209 -62 -9 -16 -10
-16 -16 0 -16 41 16 61 155 97 60 16 173 13 198 -5z m3 -504 c10 -6 19 -17 19
-25 0 -12 -13 -15 -62 -13 -146 4 -197 -1 -215 -21 -10 -11 -35 -22 -55 -26
-37 -7 -38 -7 -38 23 0 17 6 34 13 39 34 22 305 40 338 23z"/>
<path d="M10330 5629 c-424 -51 -981 -108 -1057 -109 -18 0 -22 -5 -19 -22 3
-13 5 -29 5 -37 1 -11 22 -12 119 -7 119 7 692 63 927 91 71 8 136 15 142 15
8 0 13 15 13 40 0 39 -1 40 -32 39 -18 -1 -62 -5 -98 -10z"/>
<path d="M8834 5553 c-154 -3 -184 -6 -195 -20 -11 -13 -14 -69 -12 -265 1
-138 4 -252 7 -256 8 -7 312 -2 416 7 l75 6 3 235 c2 129 0 250 -3 268 -6 32
-6 32 -58 30 -29 -2 -134 -4 -233 -5z m216 -279 c0 -193 0 -196 -21 -191 -18
5 -120 -2 -271 -19 -50 -6 -58 -4 -58 10 0 10 3 15 8 13 4 -2 57 3 117 12 106
15 110 17 110 41 0 23 -4 25 -45 28 -44 3 -130 -9 -177 -23 l-23 -7 0 159 c0
88 3 163 7 166 3 4 84 7 180 7 l173 0 0 -196z"/>
<path d="M10390 5423 c-152 -17 -765 -74 -885 -83 -254 -18 -255 -18 -255 -43
1 -53 4 -53 505 -7 121 11 324 29 450 40 127 12 236 23 243 25 6 2 12 20 12
40 0 27 -4 35 -17 33 -10 0 -34 -3 -53 -5z"/>
<path d="M10190 5194 c-135 -13 -393 -36 -575 -51 l-330 -28 -3 -43 -3 -43 48
6 c26 3 149 15 273 26 294 26 809 78 838 85 19 4 23 10 20 36 -2 17 -7 32 -13
34 -5 1 -120 -9 -255 -22z"/>
<path d="M10410 5003 c-516 -55 -1257 -113 -1436 -113 -61 0 -159 -3 -217 -7
l-107 -6 0 -38 c0 -21 4 -40 9 -43 5 -3 69 -1 142 4 74 5 251 17 394 25 323
20 889 67 1213 101 l52 5 0 40 c0 21 -3 38 -7 37 -5 0 -24 -3 -43 -5z"/>
<path d="M10200 4775 c-410 -47 -800 -79 -1130 -95 -438 -20 -440 -21 -440
-61 l0 -29 88 0 c117 0 543 26 832 51 521 44 690 58 798 65 l112 7 0 38 0 39
-72 -1 c-40 -1 -125 -7 -188 -14z"/>
<path d="M10310 4573 c-19 -2 -138 -15 -265 -28 -332 -36 -552 -53 -822 -65
-430 -19 -571 -27 -582 -34 -6 -4 -11 -20 -11 -37 0 -35 -35 -33 335 -19 306
11 568 30 930 65 138 13 311 29 385 35 74 6 145 13 157 15 24 6 37 33 27 59
-6 16 -57 19 -154 9z"/>
<path d="M10365 4373 c-22 -2 -134 -15 -250 -28 -487 -57 -835 -85 -1283 -101
-191 -7 -212 -12 -212 -54 0 -27 24 -31 135 -26 55 3 163 8 240 11 206 9 517
32 795 61 135 14 336 34 448 44 111 11 207 22 212 25 6 3 10 22 10 41 0 37 5
36 -95 27z"/>
<path d="M10027 3909 c-140 -15 -298 -135 -365 -276 -36 -76 -37 -81 -37 -193
0 -111 1 -117 33 -178 46 -88 103 -146 180 -184 125 -62 317 -47 444 34 65 41
147 132 183 203 28 56 30 67 30 175 0 109 -2 119 -32 182 -41 87 -76 132 -130
169 -80 55 -193 80 -306 68z m215 -101 c105 -48 180 -176 186 -316 4 -77 2
-88 -27 -147 -84 -169 -252 -263 -424 -235 -121 19 -193 74 -249 187 -29 59
-33 78 -33 143 0 45 8 96 19 128 38 112 157 228 263 258 73 21 199 12 265 -18z"/>
<path d="M10125 3604 c-50 -54 -76 -58 -170 -25 -79 28 -99 27 -114 -5 -9 -21
-8 -36 5 -79 20 -63 14 -108 -21 -155 -44 -60 -24 -117 38 -108 48 7 90 145
68 227 -6 24 -9 46 -7 49 3 2 19 -7 36 -22 38 -31 41 -31 110 -7 48 17 57 18
71 5 8 -8 24 -14 35 -14 27 1 128 82 132 107 5 32 -51 73 -100 73 -36 0 -46
-6 -83 -46z"/>
<path d="M15895 6073 c-196 -25 -451 -119 -608 -225 -73 -49 -204 -181 -255
-257 -98 -149 -160 -387 -147 -566 19 -260 107 -448 296 -631 191 -184 365
-268 889 -429 358 -109 436 -137 555 -195 84 -41 134 -72 168 -106 94 -92 147
-194 147 -280 0 -65 -28 -182 -55 -229 -24 -40 -127 -145 -144 -145 -5 0 -21
39 -36 87 -50 160 -99 238 -227 359 -114 107 -218 166 -369 210 -81 24 -113
28 -224 28 -180 0 -318 -41 -466 -140 -138 -92 -213 -176 -259 -294 -12 -30
-23 -57 -26 -59 -2 -2 -28 19 -58 47 -30 29 -60 52 -66 52 -6 0 -46 -32 -88
-72 -42 -39 -94 -87 -114 -105 -36 -33 -38 -37 -38 -99 0 -36 -5 -131 -11
-211 -6 -90 -7 -149 -1 -155 5 -5 84 -16 177 -24 215 -19 238 -24 361 -89 289
-152 725 -225 1103 -185 89 10 123 17 259 57 52 15 179 21 261 11 21 -3 26 3
34 35 8 33 21 46 111 107 175 119 309 272 385 441 88 196 105 473 44 714 -19
75 -92 223 -145 293 -100 133 -273 275 -422 347 -168 80 -480 173 -860 255
-323 70 -507 195 -555 377 -24 88 28 251 103 327 93 93 191 126 396 133 137 5
149 4 222 -21 82 -27 155 -67 228 -125 76 -59 189 -172 253 -251 33 -41 64
-79 67 -83 8 -9 89 55 200 156 36 33 110 94 165 137 142 111 159 130 151 174
-13 69 -169 246 -310 353 -233 175 -591 285 -919 282 -78 -1 -155 -4 -172 -6z
m390 -87 c177 -24 338 -73 497 -150 106 -52 176 -107 208 -165 12 -20 32 -44
44 -52 83 -52 186 -154 186 -185 0 -20 -25 -51 -39 -48 -12 3 -31 -8 -26 -15
7 -12 -29 -9 -37 3 -5 7 -8 4 -8 -7 0 -22 -34 -69 -43 -60 -4 3 -9 -1 -13 -10
-11 -30 -94 0 -94 34 0 7 12 33 26 57 15 25 31 62 35 81 11 50 -8 118 -38 139
-43 27 -147 12 -204 -31 -32 -23 -35 -21 -119 56 -35 31 -68 57 -75 57 -6 0
-29 13 -51 28 -21 16 -97 59 -169 96 -71 38 -134 74 -138 82 -4 8 -16 14 -26
14 -10 0 -32 7 -50 16 -24 12 -51 15 -107 11 -41 -2 -78 -8 -82 -12 -4 -4 3
-5 16 -2 26 6 28 -1 5 -19 -11 -8 -13 -13 -5 -14 7 0 12 -14 12 -37 0 -24 15
-68 42 -121 38 -78 41 -86 32 -130 l-9 -47 -75 -11 c-230 -35 -338 -86 -429
-201 -65 -81 -93 -161 -98 -283 l-5 -105 41 -80 c34 -68 52 -90 118 -144 92
-76 226 -143 339 -169 l79 -19 3 -83 3 -83 -54 6 c-80 8 -277 76 -382 132
-113 61 -191 133 -234 220 -23 46 -23 47 -4 68 29 32 63 109 63 141 0 28 -42
108 -99 186 -30 41 -31 48 -26 104 11 112 36 200 78 279 53 99 147 218 237
298 50 44 73 73 81 100 12 37 13 38 78 49 263 44 352 48 516 26z m-706 -106
c-13 -16 -68 -83 -121 -148 -146 -178 -196 -291 -207 -462 -6 -92 -7 -95 -31
-98 -58 -8 -103 -25 -129 -50 -41 -39 -51 -64 -51 -124 0 -45 5 -59 33 -93 66
-81 142 -134 194 -135 17 0 28 -15 54 -70 44 -96 136 -183 251 -238 97 -47
260 -104 373 -130 94 -22 92 -18 94 -179 l1 -102 -32 6 c-29 5 -126 37 -273
90 -63 23 -225 105 -225 114 0 5 -6 9 -12 9 -21 0 -151 90 -237 164 -277 238
-363 540 -259 911 34 123 140 292 233 374 88 77 285 181 359 190 5 1 -2 -12
-15 -29z m1039 -473 c13 -12 37 -26 55 -32 29 -9 32 -14 35 -57 3 -51 10 -56
54 -39 39 15 118 23 118 12 0 -6 12 -8 29 -5 26 6 29 3 38 -35 l11 -41 -76
-75 c-42 -41 -79 -75 -82 -75 -4 0 -29 35 -56 77 -27 42 -70 98 -96 124 -54
53 -122 109 -134 109 -15 1 -59 44 -73 72 -11 22 -12 30 -2 42 11 13 22 11 84
-20 40 -20 82 -46 95 -57z m-1360 -321 c79 -42 106 -136 56 -195 -44 -53 -126
-34 -172 40 -35 58 -37 82 -6 118 42 50 77 61 122 37z m883 -560 c89 -27 107
-42 123 -99 21 -72 39 -278 31 -341 -12 -85 -15 -87 -103 -84 l-77 3 -6 190
c-3 105 -10 225 -14 268 -4 42 -6 77 -4 77 2 0 25 -7 50 -14z m499 -138 c156
-51 309 -120 402 -181 95 -63 228 -198 228 -233 0 -26 -46 -74 -140 -142 -41
-30 -105 -79 -141 -109 -36 -29 -74 -53 -83 -53 -9 0 -35 17 -57 38 -63 57
-160 115 -298 175 -69 30 -140 60 -157 67 l-31 11 1 124 1 125 35 -7 c82 -15
275 -101 364 -162 100 -69 246 -229 246 -270 0 -6 5 -11 10 -11 6 0 10 5 10
10 0 23 -95 152 -146 199 -106 97 -334 221 -468 255 l-51 13 -17 94 c-9 52
-17 106 -17 120 l-1 26 108 -29 c59 -16 150 -43 202 -60z m730 -508 c30 -58
26 -100 -13 -152 -70 -92 -300 -250 -341 -235 -26 10 -49 57 -50 100 l-1 41
129 92 c70 51 154 115 185 143 31 27 59 50 63 51 4 0 17 -18 28 -40z m80 -305
c29 -240 -22 -478 -142 -662 -51 -79 -199 -232 -283 -292 l-45 -32 0 133 c0
192 5 182 -99 175 -47 -4 -108 -9 -136 -13 l-50 -6 25 21 c14 12 48 34 76 50
121 69 214 225 222 371 2 41 8 80 13 86 5 6 56 34 113 62 84 42 120 67 192
136 49 46 92 81 96 78 3 -4 12 -52 18 -107z m-1340 15 c139 -43 275 -135 358
-242 51 -66 121 -208 158 -316 24 -72 26 -85 14 -107 -18 -34 -27 -24 -40 43
-48 245 -139 388 -322 509 -129 86 -205 111 -359 120 -172 10 -331 -45 -505
-177 -90 -68 -174 -194 -190 -284 -10 -58 10 -38 52 51 20 42 54 96 76 119 85
93 265 204 353 219 22 3 59 16 83 28 37 18 47 19 77 8 19 -6 53 -11 77 -10 24
1 53 -3 65 -9 12 -7 40 -12 62 -12 34 0 42 -5 60 -33 18 -29 24 -33 56 -29 39
5 75 -18 75 -48 0 -23 11 -32 25 -20 19 16 62 -8 84 -46 19 -32 19 -33 0 -50
-29 -26 -23 -32 22 -20 39 10 42 9 64 -17 29 -38 80 -163 105 -261 22 -86 59
-160 87 -170 9 -4 63 -12 119 -18 57 -6 109 -15 116 -19 15 -9 17 -124 4 -222
-8 -58 -8 -58 -39 -55 -31 3 -32 5 -37 58 -4 49 -8 55 -29 58 -21 3 -23 1 -16
-25 22 -82 23 -93 10 -93 -8 0 -14 8 -14 18 0 9 -4 33 -9 52 l-9 35 -8 -37
c-4 -21 -5 -45 -1 -53 6 -17 4 -18 -18 -9 -9 3 -18 24 -22 50 -6 44 -32 72
-54 59 -9 -5 2 -53 21 -87 5 -10 5 -18 0 -18 -15 0 -29 24 -33 55 l-4 30 -14
-27 c-17 -37 -27 -35 -35 5 -9 40 -22 57 -46 57 -23 0 -39 -29 -39 -70 0 -27
-2 -29 -19 -21 -10 6 -22 26 -25 46 -8 39 -40 65 -59 46 -6 -6 -11 -29 -12
-51 0 -22 -2 -40 -5 -40 -18 1 -38 31 -43 64 -9 56 -42 76 -52 31 -3 -14 -7
-36 -10 -49 -4 -20 -11 -24 -36 -24 -16 1 -26 4 -20 7 13 9 -3 81 -21 92 -21
13 -31 -6 -26 -50 3 -37 1 -41 -19 -41 -21 0 -23 5 -23 49 0 28 -4 52 -9 55
-17 11 -33 -24 -29 -64 3 -36 1 -40 -19 -40 -21 0 -23 4 -23 55 0 41 -4 57
-15 62 -22 8 -25 3 -32 -56 -4 -38 -10 -51 -22 -51 -13 0 -15 10 -13 52 4 84
-30 108 -43 30 -11 -60 -16 -72 -31 -72 -11 0 -14 15 -14 59 0 33 -5 63 -11
67 -20 12 -40 -21 -42 -69 -2 -44 -4 -47 -29 -47 -26 0 -27 2 -30 62 -2 50 -7
63 -20 66 -19 4 -28 -20 -31 -81 -2 -32 -5 -37 -27 -37 -24 0 -25 3 -25 56 0
42 -4 59 -17 67 -24 16 -29 6 -31 -61 -2 -58 -2 -59 -27 -52 -14 4 -31 5 -37
3 -7 -3 -13 0 -13 6 0 6 5 11 10 11 11 0 14 69 4 94 -3 9 -14 16 -24 16 -14 0
-20 -10 -26 -45 -3 -25 -3 -52 0 -61 5 -12 2 -15 -10 -10 -8 3 -24 6 -35 6
-16 0 -19 7 -19 44 0 56 -8 76 -30 76 -13 0 -19 -11 -23 -45 -4 -24 -4 -52 0
-62 5 -13 3 -15 -11 -10 -10 4 -24 7 -31 7 -10 0 -15 16 -17 52 -2 42 -7 54
-22 56 -17 4 -18 -1 -14 -52 4 -46 2 -56 -9 -51 -8 3 -19 5 -24 5 -5 0 -9 25
-9 55 0 30 -2 55 -4 55 -2 0 -11 3 -20 6 -14 5 -16 -4 -16 -57 -1 -52 -3 -61
-13 -49 -7 9 -24 14 -39 12 -27 -3 -28 -2 -28 51 0 60 -3 67 -30 60 -16 -4
-18 -12 -13 -54 l6 -49 -69 0 -69 0 0 43 c0 23 6 47 13 53 11 8 11 12 -2 23
-9 7 -23 10 -32 7 -14 -5 -16 -17 -11 -66 6 -66 -1 -72 -58 -50 l-26 10 3 147
3 148 40 -1 c22 0 94 -2 160 -5 l119 -4 31 110 c52 184 94 247 230 344 175
125 300 164 495 155 77 -4 131 -13 200 -34z m-389 -1045 c116 -16 460 -50 611
-60 101 -7 119 -14 93 -35 -21 -17 -469 -10 -487 8 -7 7 -28 12 -47 12 -58 0
-298 44 -436 80 -55 15 156 11 266 -5z"/>
<path d="M15783 3325 c-87 -24 -155 -64 -220 -131 -63 -64 -123 -155 -123
-186 0 -34 41 -47 210 -63 188 -18 548 -61 630 -74 30 -5 58 -7 63 -4 29 17
-13 145 -80 244 -98 145 -215 220 -351 226 -47 2 -97 -3 -129 -12z m268 -98
c31 -15 79 -50 107 -78 52 -51 133 -191 119 -205 -4 -4 -49 0 -100 10 -122 22
-349 52 -519 67 -76 6 -138 15 -138 19 0 20 83 116 126 147 74 52 152 73 259
70 74 -2 100 -7 146 -30z"/>
<path d="M19420 6040 c-371 -31 -779 -228 -1065 -515 -209 -209 -383 -512
-465 -814 -28 -100 -60 -352 -60 -470 0 -174 48 -425 117 -611 96 -259 217
-441 469 -709 l87 -92 -22 -23 c-30 -32 -26 -50 14 -69 19 -9 35 -21 35 -26 0
-5 -12 -34 -26 -65 -34 -75 -46 -235 -21 -285 16 -31 15 -37 -18 -139 -43
-132 -55 -212 -32 -212 10 0 34 37 66 103 27 56 68 131 92 167 42 65 144 271
170 344 17 47 31 54 65 31 14 -9 42 -23 62 -30 20 -8 69 -27 107 -43 78 -33
286 -84 412 -102 126 -19 444 -8 563 18 135 30 346 88 409 114 43 17 56 19 59
9 18 -55 143 -288 182 -342 27 -36 70 -109 96 -162 26 -53 53 -97 60 -97 31 0
25 48 -21 171 -40 108 -45 127 -34 149 13 28 25 225 15 264 -3 14 -24 46 -46
71 -22 25 -40 50 -40 55 0 5 48 46 108 91 59 46 131 106 161 134 65 60 161
179 161 197 0 8 -30 39 -67 70 -38 31 -149 130 -248 221 l-180 166 -58 -56
c-50 -48 -60 -53 -70 -40 -12 15 -36 14 -132 -7 l-30 -7 -103 205 c-56 113
-141 277 -188 363 -47 87 -98 185 -114 219 l-30 61 26 64 c31 79 35 181 10
257 -29 87 -122 170 -228 205 -16 6 -16 9 -3 40 8 20 17 93 21 183 6 129 4
158 -11 203 -9 29 -15 54 -13 57 6 6 141 -30 208 -55 79 -30 233 -120 317
-186 40 -31 104 -94 144 -141 40 -46 75 -84 78 -84 15 1 511 497 511 512 0 22
-62 103 -119 156 -77 71 -233 188 -332 248 -175 107 -304 158 -507 199 -195
41 -353 51 -542 35z m-182 -170 c15 0 15 2 2 11 -12 8 -12 10 -1 7 8 -2 15
-11 17 -20 2 -19 -22 -32 -39 -21 -7 4 -6 -1 2 -11 11 -13 12 -19 3 -25 -20
-12 -3 -43 19 -36 11 4 19 2 19 -4 0 -6 3 -10 8 -10 27 4 34 -2 28 -27 -5 -19
-4 -24 5 -18 7 4 34 8 61 8 26 0 48 4 48 8 0 4 27 7 59 7 33 -1 65 2 71 6 7 4
27 9 46 11 18 1 42 8 53 13 10 6 34 11 52 12 19 1 57 8 86 15 37 10 64 12 93
5 22 -5 42 -5 45 -1 3 4 20 1 40 -8 24 -11 31 -19 22 -25 -7 -5 -2 -7 16 -4
23 4 27 1 22 -11 -3 -9 -3 -13 1 -9 4 4 14 1 22 -6 13 -9 14 -9 8 1 -11 19 6
14 38 -12 16 -13 25 -29 22 -35 -4 -6 -2 -9 6 -6 7 2 22 -3 33 -13 20 -16 23
-28 25 -94 1 -17 8 -29 21 -33 13 -4 19 -15 19 -35 0 -19 8 -33 25 -44 14 -9
25 -21 25 -27 0 -14 128 -139 141 -139 6 0 7 -4 4 -10 -3 -5 1 -10 9 -10 23 0
39 -36 26 -60 -6 -11 -14 -20 -18 -20 -12 0 -47 26 -182 134 -134 107 -211
158 -332 221 -42 22 -79 48 -82 57 -5 20 10 35 16 17 2 -7 17 -13 34 -14 16
-2 52 -7 81 -12 63 -12 85 -3 60 25 -9 10 -15 21 -12 24 3 2 -6 11 -20 18 -14
7 -25 19 -25 27 0 16 -1 16 -37 2 -15 -6 -91 -12 -168 -13 -98 -2 -155 -7
-190 -19 -27 -9 -95 -30 -150 -47 -55 -18 -141 -52 -191 -76 -51 -24 -97 -44
-103 -44 -6 0 -11 -4 -11 -8 0 -5 -18 -17 -40 -27 -22 -10 -68 -47 -102 -81
-35 -35 -66 -64 -70 -64 -13 0 -9 59 6 88 8 17 10 35 5 47 -12 30 -11 35 8 28
11 -4 14 -3 9 5 -4 7 -3 12 3 12 5 0 8 10 6 22 -6 28 14 55 26 36 7 -10 9 -10
9 2 0 8 -13 21 -28 28 -15 6 -33 22 -38 34 -6 13 -9 18 -8 12 1 -6 -2 -17 -7
-25 -7 -11 -9 -10 -9 5 0 20 0 20 -16 0 -11 -13 -17 -15 -20 -6 -3 6 -12 12
-20 12 -8 0 -14 7 -14 16 0 9 -5 12 -12 8 -8 -5 -9 -2 -4 11 7 18 6 18 -13 1
-11 -10 -25 -15 -30 -11 -16 9 -13 35 4 41 8 4 15 15 15 25 0 11 5 16 13 13 7
-2 26 7 41 21 16 15 35 24 43 21 8 -3 12 -2 8 3 -10 17 107 63 162 65 29 0 53
4 53 9 0 4 12 7 28 8 l27 1 -25 8 c-25 8 -25 8 5 10 17 2 40 3 52 4 12 0 25 5
29 9 5 5 10 3 12 -2 2 -6 11 -11 20 -11z m1026 -75 c8 -8 30 -17 50 -19 42 -6
118 -39 136 -61 7 -8 17 -15 22 -15 5 0 30 -17 55 -37 111 -94 220 -190 238
-212 25 -32 36 -78 21 -90 -9 -7 -11 -1 -8 24 4 32 2 35 -22 35 -14 0 -26 6
-26 13 0 9 -2 9 -8 0 -5 -7 -36 -16 -69 -19 -53 -6 -67 -4 -100 16 -45 27 -72
58 -73 82 0 16 -85 129 -102 136 -4 2 -6 7 -3 12 3 4 -6 15 -19 23 -12 9 -31
31 -40 51 -15 32 -20 35 -46 29 -28 -5 -30 -3 -28 21 3 31 2 30 22 11z m-1535
-141 c10 -23 10 -25 -9 -19 -11 4 -19 3 -18 -2 4 -14 -23 -107 -43 -144 -10
-20 -19 -43 -19 -50 0 -8 -7 -26 -14 -41 -8 -16 -17 -41 -19 -57 -3 -16 -12
-44 -20 -62 -33 -71 -76 -296 -55 -283 4 3 8 0 8 -6 0 -7 7 -9 16 -6 10 4 14
2 11 -6 -2 -7 -11 -12 -18 -10 -11 3 -12 1 -1 -9 17 -18 15 -29 -5 -29 -9 0
-13 -3 -9 -7 3 -4 -6 -12 -21 -19 -24 -10 -31 -9 -50 9 -13 11 -23 29 -23 39
0 11 -4 16 -10 13 -15 -10 -12 6 6 26 10 11 13 23 8 31 -14 22 -10 42 11 67
11 13 15 21 9 18 -7 -4 -15 0 -18 9 -9 22 0 30 18 15 11 -9 15 -8 19 4 4 8 3
14 -1 14 -20 -3 -23 3 -11 18 9 11 10 14 2 9 -9 -5 -11 -2 -7 8 3 9 10 16 15
16 5 0 9 7 9 15 0 7 8 18 17 24 12 6 17 20 15 40 -1 19 5 38 17 50 26 26 30
53 11 69 -8 8 -9 11 -2 7 7 -4 12 0 12 10 0 10 -5 14 -12 10 -7 -4 -5 0 5 8 9
8 17 20 17 26 0 7 5 9 10 6 6 -3 10 0 10 8 0 8 7 20 15 27 11 9 13 16 5 24
-16 16 -13 46 5 40 9 -4 15 0 15 8 0 8 9 25 20 38 11 13 20 27 20 31 0 10 29
39 39 39 4 0 13 -12 20 -26z m727 -336 c-25 -85 -23 -310 3 -405 11 -37 10
-38 -64 -69 -124 -53 -180 -252 -124 -441 l21 -71 -52 -114 c-29 -62 -76 -158
-105 -213 -29 -55 -92 -187 -139 -294 -48 -106 -94 -207 -103 -224 l-16 -31
-34 39 c-114 132 -190 259 -248 410 -74 195 -75 430 -3 669 109 365 386 642
737 736 133 36 135 36 127 8z m239 -521 c37 -19 94 -79 125 -130 53 -90 29
-240 -53 -322 -37 -37 -40 -39 -48 -20 -4 11 -8 15 -8 8 -1 -6 -16 -19 -33
-28 -40 -21 -189 -29 -200 -12 -6 9 -8 9 -8 0 0 -21 -66 25 -93 65 -14 20 -35
58 -46 84 l-20 47 27 -10 c22 -7 24 -7 12 3 -11 10 -15 34 -15 96 0 45 3 82 6
82 4 0 10 15 13 33 7 38 53 92 93 109 69 28 190 26 248 -5z m-1452 -309 c15
-7 27 -19 27 -25 0 -7 6 -13 13 -13 7 0 21 -10 31 -21 14 -17 16 -26 8 -43 -9
-17 -11 -18 -11 -3 -1 9 -8 17 -17 17 -29 0 -51 -19 -49 -42 2 -31 -20 -51
-50 -44 -41 10 -79 -53 -40 -68 8 -3 15 -11 15 -18 0 -9 -3 -9 -10 2 -9 13
-13 12 -30 -9 -23 -27 -24 -41 -8 -113 6 -29 11 -57 10 -62 -2 -4 3 -25 10
-45 6 -20 11 -42 9 -50 -1 -8 3 -17 10 -22 7 -4 12 -22 12 -41 0 -18 4 -38 9
-45 12 -15 -22 -34 -49 -27 -17 5 -22 20 -34 97 -18 120 -18 298 0 362 27 94
88 225 105 225 7 0 24 -6 39 -12z m181 -139 c-1 -8 -5 -27 -9 -43 -6 -23 -5
-27 5 -21 9 6 11 4 5 -6 -12 -19 -17 -129 -6 -129 5 0 11 3 14 8 2 4 2 1 0 -7
-2 -8 1 -28 6 -45 5 -17 15 -65 21 -106 7 -41 17 -83 22 -92 5 -10 4 -19 -2
-23 -5 -3 -10 -11 -10 -17 0 -6 3 -9 6 -5 10 10 34 -20 34 -42 0 -11 5 -23 10
-26 6 -3 10 -14 10 -23 0 -13 -6 -11 -25 10 -14 15 -25 34 -25 43 0 9 -7 18
-16 22 -8 3 -13 12 -10 19 3 7 0 19 -7 26 -7 7 -11 31 -11 53 1 26 -5 46 -16
56 -14 14 -17 39 -18 168 0 83 -3 155 -6 160 -9 14 5 42 18 38 6 -2 10 -10 10
-18z m949 -99 c9 -13 17 -38 17 -55 0 -16 -34 -106 -76 -200 -42 -93 -133
-303 -204 -465 -70 -162 -149 -343 -175 -401 l-48 -107 -43 15 c-81 28 -80 42
14 228 103 203 150 301 230 481 100 223 227 513 235 537 8 21 18 14 50 -33z
m657 -370 c193 -386 320 -653 422 -885 22 -49 82 -172 134 -272 103 -200 109
-223 73 -303 -16 -35 -22 -41 -30 -30 -22 32 -413 829 -439 895 -15 39 -106
230 -202 425 -175 355 -228 473 -228 506 0 19 40 84 52 84 5 0 102 -189 218
-420z m-305 239 c18 -35 78 -168 134 -296 57 -127 127 -273 157 -324 30 -51
53 -98 50 -106 -4 -9 -31 -14 -93 -15 -142 -3 -159 0 -235 38 -101 51 -137 51
-218 -3 -41 -28 -74 -43 -94 -43 -61 1 -299 19 -303 24 -2 2 21 55 53 117 31
62 106 235 166 384 61 148 114 275 118 280 5 6 57 10 121 9 l112 -1 32 -64z
m-1625 -398 c0 -5 9 -11 20 -14 11 -3 20 0 20 5 0 7 5 6 14 -1 8 -6 18 -11 22
-9 14 3 121 -52 133 -69 3 -5 17 -14 31 -21 14 -6 54 -30 89 -52 34 -22 68
-40 74 -40 6 0 18 -6 26 -14 9 -8 23 -16 31 -18 21 -4 48 -50 56 -95 4 -21 10
-45 15 -54 5 -10 3 -21 -4 -29 -8 -8 -8 -11 -1 -7 7 4 25 -4 40 -18 16 -13 43
-36 59 -50 l30 -25 -23 -19 c-12 -11 -27 -21 -34 -23 -8 -3 -7 -14 2 -40 18
-48 2 -68 -51 -68 -30 0 -39 4 -44 23 -8 29 -33 86 -47 112 -46 79 -52 101
-50 173 1 53 -2 72 -11 72 -7 0 -23 9 -35 20 -12 11 -31 22 -44 23 -12 2 -24
9 -26 15 -2 6 -10 8 -19 5 -11 -4 -14 -2 -9 5 5 8 0 12 -14 12 -11 0 -30 8
-41 19 -11 10 -38 21 -59 25 -21 3 -46 13 -54 22 -9 8 -16 13 -16 10 0 -8 -96
42 -108 56 -17 22 -18 52 -2 65 18 15 30 16 30 4z m1490 -472 l0 -151 -25 16
c-13 9 -49 25 -79 37 -55 20 -56 20 -40 45 13 18 25 24 54 24 l38 0 4 69 c2
50 9 75 22 90 11 12 21 21 23 21 1 0 3 -68 3 -151z m521 43 c7 -19 4 -24 -29
-38 -43 -18 -294 -84 -321 -84 -15 0 -18 6 -15 33 1 17 3 44 3 60 l1 27 78 1
c42 0 111 6 152 14 99 17 121 15 131 -13z m-703 2 c39 -4 72 -10 72 -15 0 -5
-5 -9 -10 -9 -16 0 -79 -43 -85 -58 -2 -7 5 -17 18 -23 52 -22 -31 1 -140 40
-234 83 -211 94 145 65z m457 -257 c-3 -23 -149 -179 -159 -169 -3 3 -6 -5 -6
-17 0 -12 -4 -19 -10 -16 -5 3 -10 -1 -10 -9 0 -8 -8 -20 -17 -25 -10 -6 -13
-11 -6 -11 6 0 18 6 25 13 7 8 18 12 25 10 6 -2 18 6 27 19 9 12 16 18 16 13
0 -6 5 -3 10 5 8 13 11 13 19 1 10 -16 35 -5 28 13 -3 8 5 13 24 13 20 0 25
-3 17 -9 -10 -6 -10 -10 1 -17 12 -8 9 -11 -12 -16 -15 -4 -27 -11 -27 -17 0
-5 6 -6 13 -2 6 4 1 -5 -12 -19 -17 -18 -27 -23 -32 -16 -4 8 -9 5 -13 -7 -8
-25 -110 -83 -171 -97 -5 -2 -16 -6 -22 -10 -7 -5 -17 -5 -23 -2 -5 3 -10 2
-10 -4 0 -5 6 -12 13 -14 8 -4 7 -6 -3 -6 -9 -1 -26 6 -39 15 -22 16 -23 16
-16 -5 5 -16 3 -20 -9 -15 -9 3 -16 11 -16 18 0 6 -6 3 -13 -6 -12 -15 -14
-15 -25 2 -9 14 -9 21 0 26 7 5 8 2 3 -7 -6 -11 -5 -12 5 -2 8 7 11 15 8 18
-8 8 -47 -8 -47 -20 0 -5 -7 -11 -15 -13 -9 -2 -16 2 -16 8 0 6 5 8 10 5 6 -3
10 -2 10 3 0 5 -25 12 -56 16 -31 4 -69 13 -83 20 -14 8 -73 37 -131 65 -124
59 -203 105 -208 119 -1 5 8 33 21 61 22 49 24 51 40 33 9 -10 17 -28 17 -39
0 -29 69 -89 138 -119 89 -40 195 -72 225 -69 36 4 107 39 153 75 20 17 40 27
45 24 5 -3 9 0 9 6 0 6 14 16 30 21 17 6 30 15 30 20 0 5 9 9 20 9 11 0 20 7
20 15 0 8 6 12 14 9 7 -3 16 2 19 10 4 10 1 13 -9 9 -22 -8 -17 21 9 45 12 12
38 22 57 24 26 1 94 23 116 37 1 1 0 -9 -1 -22z m325 -8 c0 -10 5 -21 11 -24
10 -7 3 -65 -10 -75 -4 -3 -13 -20 -20 -37 -8 -18 -17 -33 -22 -33 -5 0 -9 -5
-9 -12 0 -6 -24 -35 -54 -62 -71 -66 -78 -72 -104 -80 -12 -4 -22 -11 -22 -17
0 -5 -18 -12 -40 -15 -22 -4 -40 -10 -40 -15 0 -15 -18 -10 -24 7 -4 11 20 42
79 103 46 47 101 111 122 141 21 30 43 60 49 65 6 6 20 24 32 41 23 34 52 41
52 13z m-1366 -107 c5 -9 -124 -297 -188 -422 -36 -69 -50 -79 -80 -57 -38 28
-25 88 52 248 39 80 87 166 107 192 30 40 41 47 70 47 19 0 36 -4 39 -8z"/>
<path d="M19480 4722 c-50 -25 -100 -103 -100 -157 0 -24 -3 -52 -6 -62 -4
-13 -3 -14 4 -5 7 10 12 6 21 -16 32 -76 123 -128 205 -117 66 9 83 18 128 68
62 69 60 162 -6 231 -18 20 -30 38 -27 42 3 3 2 4 -4 3 -5 -1 -34 5 -64 14
-69 22 -107 21 -151 -1z m143 -76 c40 -16 87 -70 87 -98 0 -29 -29 -73 -60
-92 -35 -20 -118 -21 -144 -1 -120 91 -22 250 117 191z"/>
<path d="M30635 5995 c-207 -39 -453 -125 -608 -211 l-98 -54 -130 0 c-129 0
-130 0 -156 -27 -40 -43 -53 -85 -53 -170 l0 -78 -86 -90 c-100 -106 -144
-169 -223 -325 -101 -198 -137 -310 -187 -575 -23 -118 -27 -168 -27 -320 -1
-155 3 -200 27 -325 32 -170 98 -375 163 -504 105 -209 300 -451 481 -597 300
-242 635 -374 1040 -411 297 -26 655 44 927 181 295 150 562 376 709 600 291
442 395 973 291 1488 -96 474 -384 886 -804 1153 -193 121 -395 203 -627 251
-127 27 -527 35 -639 14z m605 -90 c467 -93 870 -348 1111 -702 78 -115 78
-110 4 -149 -32 -18 -87 -56 -202 -141 l-72 -53 -11 53 c-10 51 -16 63 -73
144 -36 53 -29 82 34 143 71 68 62 74 -123 80 l-153 6 -150 75 c-166 84 -257
119 -310 119 l-36 0 3 68 c2 85 -13 126 -56 146 -50 24 -249 36 -684 43 -251
4 -391 10 -389 16 11 34 404 140 672 181 75 11 314 -5 435 -29z m-1085 -307
c121 -7 279 -13 351 -13 l132 0 6 -59 c3 -32 6 -76 6 -96 l0 -38 -42 4 c-24 2
-211 5 -416 7 -229 2 -377 8 -383 14 -6 6 -7 46 -3 107 l7 97 61 -5 c34 -3
160 -11 281 -18z m1033 -126 c-2 -113 -5 -132 -18 -127 -8 4 -96 11 -195 16
-225 13 -240 16 -240 55 0 22 8 34 38 53 41 27 47 45 17 61 -13 7 -20 21 -20
40 l0 30 183 2 c100 2 195 3 210 3 l28 0 -3 -133z m217 -102 c77 -26 187 -81
193 -97 3 -10 -37 -13 -179 -13 l-182 0 7 61 c3 33 9 65 12 71 8 13 70 4 149
-22z m-165 -174 c107 -25 228 -24 400 5 36 6 123 9 193 7 l129 -3 -23 -29 -23
-29 -170 7 c-200 7 -288 7 -606 0 -272 -7 -271 -6 -290 -100 -14 -67 1 -244
24 -279 9 -13 30 -25 51 -29 19 -4 208 -7 418 -7 215 0 389 -4 398 -10 9 -6
-25 -9 -96 -9 -60 1 -279 -2 -486 -6 -363 -7 -376 -6 -383 12 -10 27 -25 203
-26 302 0 90 -10 122 -39 122 -14 0 -21 -10 -25 -37 -7 -44 9 -369 19 -396 7
-15 0 -17 -65 -14 l-73 3 4 95 c2 52 3 148 2 214 l-2 120 -31 28 c-27 24 -38
27 -100 27 -97 0 -100 18 -3 22 112 4 773 -9 803 -16z m-830 -64 l85 -7 3
-169 c1 -94 -2 -173 -7 -180 -7 -8 -70 -9 -228 -5 -120 4 -333 7 -475 8 l-256
1 1 143 c1 78 -1 160 -5 182 l-7 40 402 -3 c221 -2 440 -6 487 -10z m-951 -36
c13 -55 15 -205 2 -240 -6 -13 -26 -45 -45 -71 -20 -26 -36 -53 -36 -62 0 -21
58 -73 81 -73 27 0 33 -34 33 -192 1 -155 0 -157 -74 -177 -25 -7 -75 -26
-113 -43 -58 -27 -67 -34 -61 -52 12 -39 45 -85 85 -116 21 -18 39 -38 39 -45
0 -18 43 -51 97 -75 54 -24 77 -51 97 -110 16 -47 46 -217 46 -260 l0 -26
-127 -3 c-71 -1 -148 -6 -173 -11 -32 -6 -49 -5 -57 3 -16 16 -58 178 -89 344
-62 340 2 769 166 1092 86 173 109 193 129 117z m2421 -46 c-6 -58 -6 -145 0
-190 l5 -35 -450 -5 c-247 -3 -465 -3 -482 -1 -28 3 -34 9 -43 40 -13 46 -13
172 -1 205 6 13 20 26 33 29 13 2 230 4 483 3 l460 -1 -5 -45z m626 -122 c58
-116 101 -238 130 -375 26 -119 28 -145 29 -358 0 -282 -11 -347 -105 -640
-76 -233 -166 -389 -335 -578 -74 -82 -92 -97 -118 -97 l-30 0 27 25 c14 13
26 31 26 40 0 34 -33 73 -71 84 -47 14 -54 26 -70 121 -16 96 -8 133 41 197
55 73 72 109 142 301 143 393 144 634 7 1065 -8 24 -24 44 -46 57 -34 20 -44
40 -20 40 18 0 84 35 185 98 46 29 87 52 91 52 4 0 16 9 26 20 33 36 52 25 91
-52z m-517 -10 c18 -40 54 -116 80 -168 81 -161 117 -300 136 -520 11 -124
-17 -303 -76 -492 -28 -90 -54 -166 -58 -170 -8 -9 -107 14 -122 29 -7 7 -15
29 -18 49 -5 32 -11 39 -38 46 -18 5 -42 22 -55 41 -20 27 -23 47 -26 135 l-4
102 80 78 c86 83 117 125 107 142 -3 5 -38 25 -78 43 -105 49 -106 50 -118
216 -6 79 -8 149 -5 157 3 9 20 14 43 14 92 0 173 56 173 120 0 29 -6 38 -43
63 -14 9 -19 32 -24 100 -4 55 -2 87 4 87 6 0 25 -33 42 -72z m-1271 -295 c-2
-10 -18 -21 -38 -26 -19 -5 -48 -21 -63 -35 -47 -44 -60 -79 -59 -158 1 -81
25 -142 67 -170 14 -9 25 -25 25 -35 0 -15 -8 -19 -37 -20 -21 -1 -68 -3 -105
-4 -38 -1 -68 0 -69 4 -1 3 -2 104 -3 224 l-1 217 30 5 c29 5 98 9 203 13 45
2 53 -1 50 -15z m-375 -40 c2 -21 5 -122 6 -224 l2 -186 -27 0 c-15 0 -35 8
-45 18 -14 14 -15 19 -5 19 22 0 26 35 23 228 -2 180 -2 182 19 182 18 0 23
-7 27 -37z m-145 12 c2 -2 4 -79 5 -171 l2 -168 -195 2 c-224 3 -403 12 -418
21 -12 7 -28 290 -18 316 5 15 32 16 313 9 170 -3 309 -8 311 -9z m1545 -169
c4 -65 5 -121 2 -125 -4 -3 -254 -7 -555 -9 l-549 -3 -12 23 c-28 52 -7 190
33 214 31 19 109 22 573 21 l500 -2 8 -119z m-1903 -422 c80 -8 213 -17 296
-21 l151 -6 7 -60 c3 -33 6 -102 6 -154 l0 -94 -257 6 c-142 3 -282 8 -311 11
-62 6 -62 8 -108 164 -15 52 -33 107 -40 122 -25 49 -20 55 49 51 34 -2 127
-11 207 -19z m1917 -64 c-5 -63 -2 -96 20 -216 l5 -31 -333 -4 c-184 -2 -392
-4 -464 -4 l-130 0 -3 75 c-1 41 1 106 5 145 8 69 8 69 43 77 19 4 204 12 410
16 206 5 393 10 414 10 l39 2 -6 -70z m-2259 -451 l183 -13 32 -54 c81 -136
255 -327 387 -423 133 -97 304 -171 495 -215 113 -26 532 -28 585 -2 56 27
198 46 450 62 259 17 400 23 395 18 -2 -2 0 -14 5 -27 7 -18 3 -28 -19 -49
-15 -14 -31 -23 -36 -19 -4 5 -5 3 -2 -3 17 -30 -228 -182 -400 -249 -95 -36
-126 -45 -323 -97 -196 -52 -454 -50 -690 3 -52 12 -104 25 -115 30 -11 4 -51
17 -90 29 -38 11 -79 25 -90 30 -11 5 -48 21 -83 35 -143 59 -291 152 -416
265 -215 192 -346 362 -465 598 -49 97 -50 106 -13 99 15 -3 109 -11 210 -18z
m905 -85 c16 -4 32 -15 36 -28 16 -39 24 -311 12 -349 -15 -44 -25 -48 -99
-37 -90 12 -178 63 -305 174 -58 51 -227 238 -227 252 0 7 538 -4 583 -12z
m1503 -198 l-1 -163 -95 -7 c-52 -3 -198 -6 -325 -7 -126 0 -309 -4 -405 -8
-96 -4 -186 -5 -200 -1 -42 11 -70 73 -69 155 1 91 18 146 49 162 19 10 130
13 440 14 340 1 602 9 606 17 0 1 0 -72 0 -162z"/>
<path d="M15933 5265 c-62 -31 -123 -95 -123 -129 0 -40 9 -53 64 -95 45 -33
55 -47 65 -87 32 -125 164 -219 272 -195 93 21 139 120 88 186 -21 25 -21 28
-6 60 13 26 14 41 5 72 -14 54 -41 79 -121 109 -45 17 -82 40 -102 60 -42 47
-78 51 -142 19z m213 -219 c8 -8 14 -19 14 -24 0 -6 6 -13 13 -16 61 -30 72
-43 75 -86 5 -70 -3 -88 -48 -101 -35 -11 -44 -9 -94 15 -80 39 -114 102 -85
159 32 62 91 87 125 53z"/>
<path d="M12054 4701 c-2 -2 -4 -154 -4 -338 l0 -333 1090 0 1090 0 0 335 0
335 -852 3 c-1155 3 -1319 3 -1324 -2z m2106 -333 l0 -253 -1015 0 -1015 0 0
253 0 252 1015 0 1015 0 0 -252z"/>
</g>
</svg>
