 <svg  version="1.0" xmlns="http://www.w3.org/2000/svg"  width="450.000000pt" height="134.000000pt" viewBox="0 0 450.000000 134.000000"  preserveAspectRatio="xMidYMid meet">  <g transform="translate(0.000000,134.000000) scale(0.100000,-0.100000)" fill="#ffffff" stroke="none"> <path d="M357 1093 c-3 -5 -23 -43 -46 -86 -39 -74 -50 -107 -33 -107 4 0 22 -13 40 -30 33 -30 66 -39 77 -20 3 6 15 10 25 10 10 0 31 11 46 25 32 30 30 42 -26 143 -28 50 -46 72 -60 72 -10 0 -21 -3 -23 -7z m3 -73 c12 -6 28 -7 43 -1 23 9 26 6 50 -47 l26 -56 -25 -23 c-14 -13 -34 -23 -44 -23 -10 0 -22 -4 -25 -10 -9 -15 -23 -12 -43 8 -10 10 -27 25 -39 33 l-20 14 25 58 c27 63 25 61 52 47z"/> <path d="M406 970 c10 -54 25 -83 18 -35 -4 22 -11 47 -16 55 -6 10 -7 3 -2 -20z"/> <path d="M351 949 c-14 -40 -14 -42 2 -28 12 11 22 59 13 59 -2 0 -9 -14 -15 -31z"/> <path d="M4015 961 c-3 -2 -5 -15 -5 -28 0 -12 -4 -23 -10 -23 -5 0 -10 -22 -10 -50 0 -27 3 -50 8 -50 4 0 7 -20 7 -45 0 -25 -2 -45 -5 -45 -3 0 -5 -100 -5 -222 l0 -222 23 1 c12 0 47 1 77 2 l55 1 0 45 c0 38 -3 45 -20 45 -17 0 -20 7 -20 50 0 28 4 50 9 50 6 0 8 59 5 148 -7 241 -11 287 -28 290 -8 2 -16 15 -18 30 -2 22 -8 27 -31 27 -15 1 -30 -1 -32 -4z m55 -31 c0 -15 -7 -20 -25 -20 -18 0 -25 5 -25 20 0 15 7 20 25 20 18 0 25 -5 25 -20z m20 -69 l0 -38 -42 1 c-42 1 -43 2 -46 39 l-3 37 45 0 46 0 0 -39z m20 -96 c0 -35 0 -35 -45 -35 -45 0 -45 0 -45 35 0 35 0 35 45 35 45 0 45 0 45 -35z m-60 -85 c0 -25 -4 -30 -25 -30 -21 0 -25 5 -25 30 0 25 4 30 25 30 21 0 25 -5 25 -30z m56 -6 c1 -13 -6 -19 -20 -19 -16 0 -21 6 -21 26 0 22 3 25 20 19 11 -4 20 -16 21 -26z m-6 -43 c-19 -8 -22 -54 -3 -47 7 3 13 1 13 -4 0 -6 -24 -10 -52 -10 -34 0 -48 3 -39 9 7 5 18 15 23 22 8 11 8 10 4 -4 -4 -14 -1 -18 12 -15 25 5 21 32 -5 36 -13 2 -23 -2 -23 -9 0 -7 -3 -9 -6 -6 -14 14 19 35 54 35 20 0 30 -3 22 -7z m10 -111 l0 -40 -50 0 -50 0 0 40 0 40 50 0 50 0 0 -40z m-10 -95 l0 -45 -45 0 -45 0 0 45 0 45 45 0 45 0 0 -45z m0 -95 c0 -36 -2 -40 -25 -40 -27 0 -34 15 -10 24 17 6 20 32 5 41 -6 3 -7 -1 -4 -9 4 -9 -1 -18 -10 -22 -9 -3 -16 -12 -16 -20 0 -8 -7 -14 -15 -14 -11 0 -15 11 -15 40 l0 40 45 0 45 0 0 -40z m40 0 c0 -20 -5 -30 -15 -30 -10 0 -15 10 -15 30 0 20 5 30 15 30 10 0 15 -10 15 -30z"/> <path d="M4030 863 c0 -26 3 -30 20 -26 20 5 29 43 10 43 -5 0 -7 -7 -4 -15 4 -8 1 -15 -6 -15 -6 0 -9 4 -6 8 2 4 1 14 -5 22 -6 11 -9 7 -9 -17z"/> <path d="M4040 763 c0 -18 6 -23 25 -23 14 0 25 4 25 9 0 5 -9 7 -20 4 -24 -6 -26 5 -4 21 13 10 13 12 -5 12 -15 0 -21 -7 -21 -23z"/> <path d="M4080 679 c0 -5 5 -7 10 -4 6 3 10 8 10 11 0 2 -4 4 -10 4 -5 0 -10 -5 -10 -11z"/> <path d="M4037 543 c-4 -3 -7 -18 -6 -32 0 -14 3 -20 6 -12 4 10 7 10 13 1 5 -8 9 -5 13 9 5 21 -14 46 -26 34z"/> <path d="M4024 435 c-7 -17 3 -35 19 -35 7 0 6 4 -3 10 -13 9 -13 10 0 10 12 0 13 2 1 9 -11 7 -11 9 0 14 11 4 11 6 1 6 -7 1 -15 -6 -18 -14z"/> <path d="M4082 420 c0 -19 2 -27 5 -17 2 9 2 25 0 35 -3 9 -5 1 -5 -18z"/> <path d="M4022 325 c0 -16 2 -22 5 -12 2 9 2 23 0 30 -3 6 -5 -1 -5 -18z"/> <path d="M747 916 c-72 -26 -107 -76 -107 -151 l0 -45 -40 0 -40 0 0 -51 0 -52 35 6 35 6 0 -245 0 -244 50 0 50 0 0 243 0 242 67 0 68 0 3 48 3 47 -72 0 -72 0 6 37 c10 57 37 78 100 76 l52 -2 0 42 c0 36 -3 43 -25 48 -41 11 -73 9 -113 -5z m123 -27 c0 -19 -4 -20 -64 -14 -58 6 -65 5 -85 -16 -11 -12 -21 -28 -21 -33 0 -6 -5 -4 -11 4 -9 12 -10 12 -5 -4 4 -11 0 -26 -9 -36 -14 -15 -13 -21 11 -64 22 -39 24 -51 16 -74 -18 -45 -27 -238 -11 -247 9 -6 11 -3 6 8 -3 10 -2 17 3 17 6 0 6 9 0 24 -10 29 -1 176 12 193 6 7 15 10 21 6 6 -4 1 10 -12 30 -13 21 -20 44 -17 52 3 8 0 15 -6 15 -7 0 -6 6 3 18 11 14 11 15 -1 5 -17 -15 -30 -17 -30 -4 0 5 9 12 19 16 11 3 18 12 15 18 -2 7 7 24 21 37 14 13 25 20 25 16 0 -5 6 -4 13 1 7 6 33 7 62 3 l50 -7 -48 -2 c-68 -2 -107 -40 -107 -105 l0 -46 65 0 c36 0 65 -3 65 -7 -1 -5 -9 -18 -19 -30 -14 -17 -30 -23 -60 -23 -22 0 -43 -5 -46 -10 -4 -6 -6 -114 -6 -240 l0 -230 -34 0 -34 0 -1 233 c0 250 -3 262 -53 250 -22 -5 -22 -5 -2 10 23 18 61 22 70 7 3 -5 10 -10 16 -10 13 0 11 57 -2 66 -8 5 -10 -1 -5 -19 6 -25 5 -26 -29 -20 -21 3 -41 1 -50 -7 -13 -10 -15 -9 -15 8 0 16 7 21 33 24 31 3 32 4 38 60 7 63 30 108 60 115 10 3 19 9 19 14 0 5 7 6 15 3 8 -4 15 -1 15 5 0 7 21 11 55 11 49 0 55 -2 55 -21z m-24 -246 c-10 -10 -19 5 -10 18 6 11 8 11 12 0 2 -7 1 -15 -2 -18z"/> <path d="M810 890 c8 -5 24 -10 34 -10 26 0 18 6 -19 14 -22 5 -26 4 -15 -4z"/> <path d="M740 682 c0 -4 10 -13 23 -21 22 -14 22 -14 3 8 -20 22 -26 25 -26 13z"/> <path d="M792 676 c7 -8 16 -12 21 -9 11 7 -2 23 -19 23 -12 0 -12 -2 -2 -14z"/> <path d="M661 622 c6 -18 9 -50 6 -70 -5 -30 -4 -33 5 -18 12 21 5 93 -11 109 -8 8 -8 2 0 -21z"/> <path d="M663 435 c0 -22 2 -30 4 -17 2 12 2 30 0 40 -3 9 -5 -1 -4 -23z"/> <path d="M674 305 c9 -21 12 -22 18 -7 10 26 9 28 -11 29 -16 1 -17 -2 -7 -22z"/> <path d="M663 265 c0 -22 2 -30 4 -17 2 12 2 30 0 40 -3 9 -5 -1 -4 -23z"/> <path d="M677 229 c-4 -16 -3 -18 9 -8 16 13 19 29 5 29 -5 0 -11 -9 -14 -21z"/> <path d="M687 193 c-4 -3 -7 -11 -7 -17 0 -6 5 -5 12 2 6 6 9 14 7 17 -3 3 -9 2 -12 -2z"/> <path d="M2586 898 c-3 -13 -3 -70 0 -128 4 -80 2 -119 -10 -165 -22 -83 -22 -248 0 -266 15 -12 16 -11 10 11 -5 16 -4 20 2 12 6 -8 11 28 15 100 3 63 10 125 16 138 7 18 8 5 5 -50 -4 -65 -14 -185 -17 -207 0 -5 -7 -14 -14 -22 -21 -21 -10 -35 33 -43 21 -3 55 -10 74 -16 40 -10 248 12 265 29 5 5 9 68 8 142 -1 111 -4 140 -22 180 -12 28 -29 51 -40 54 -11 3 -21 13 -24 22 -3 13 -19 20 -60 24 -66 8 -85 2 -98 -29 -4 -13 -16 -24 -25 -24 -14 0 -16 15 -13 128 l4 127 -51 3 c-46 3 -52 1 -58 -20z m94 -4 c0 -7 -4 -16 -10 -19 -5 -3 -7 0 -4 8 3 8 -2 14 -11 14 -11 0 -14 -5 -9 -16 4 -9 7 -53 6 -98 -1 -72 1 -83 16 -83 9 0 0 -9 -21 -20 -20 -11 -39 -20 -42 -20 -3 0 -5 32 -5 70 0 40 4 70 10 70 15 0 13 97 -2 103 -7 3 6 5 30 5 27 -1 42 -6 42 -14z m-73 -66 c-2 -13 -4 -3 -4 22 0 25 2 35 4 23 2 -13 2 -33 0 -45z m73 -8 c0 -5 -5 -10 -11 -10 -5 0 -7 5 -4 10 3 6 8 10 11 10 2 0 4 -4 4 -10z m0 -47 c0 -30 -9 -27 -15 6 -2 11 0 21 6 21 5 0 9 -12 9 -27z m0 -48 c0 -8 -2 -15 -4 -15 -2 0 -6 7 -10 15 -3 8 -1 15 4 15 6 0 10 -7 10 -15z m73 -40 c-3 -9 -8 -14 -10 -11 -3 3 -2 9 2 15 9 16 15 13 8 -4z m125 -2 c6 -19 -35 -16 -42 3 -4 11 0 15 16 12 12 -2 23 -9 26 -15z m-78 -3 c0 -5 -10 -10 -22 -10 -19 0 -20 2 -8 10 19 13 30 13 30 0z m-125 -20 c-3 -4 48 -6 114 -3 117 6 119 5 134 -18 9 -13 22 -46 29 -72 12 -45 11 -50 -7 -63 -18 -14 -20 -13 -23 6 -2 14 -9 20 -20 18 -10 -2 -16 -11 -14 -21 5 -27 -55 -23 -79 6 l-19 22 -6 -22 c-7 -25 -24 -29 -42 -11 -9 9 -12 9 -12 0 0 -7 11 -17 24 -23 13 -6 27 -20 29 -31 7 -26 31 -18 35 10 3 18 10 22 38 22 28 0 34 -4 34 -21 0 -14 5 -19 18 -17 9 2 17 10 17 18 0 15 23 35 31 28 7 -8 8 -173 1 -185 -8 -13 -200 -38 -222 -29 -14 5 -16 28 -14 153 1 86 -3 159 -9 175 -14 34 -48 54 -67 38 -10 -8 -15 -8 -20 0 -4 6 -5 12 -4 13 2 1 13 7 24 13 21 12 39 9 30 -6z m-60 -37 c-16 -40 -25 -92 -25 -155 0 -39 -4 -68 -10 -68 -5 0 -10 10 -10 23 1 44 19 197 25 207 11 17 28 11 20 -7z m69 -1 c2 -4 0 -14 -6 -22 -8 -12 -9 -11 -4 5 6 19 6 19 -9 1 -20 -26 -31 -104 -16 -119 17 -17 31 9 31 60 0 47 14 65 24 30 3 -12 6 -86 6 -163 l0 -141 -27 5 c-20 4 -23 7 -10 10 14 3 17 15 17 68 0 64 0 65 -31 71 l-32 6 6 88 c3 49 8 93 12 99 7 12 32 13 39 2z m-18 -120 c-11 -10 -13 3 -7 48 l6 45 3 -44 c2 -23 1 -46 -2 -49z m241 -19 c-3 -10 -5 -4 -5 12 0 17 2 24 5 18 2 -7 2 -21 0 -30z m-106 -16 c-8 -8 -11 -3 -11 19 1 25 2 27 11 11 8 -14 8 -22 0 -30z m-135 -55 c6 -4 11 -30 13 -58 2 -45 0 -52 -18 -57 -12 -3 -19 -1 -15 4 3 5 1 9 -5 9 -5 0 -13 -4 -16 -10 -3 -5 -13 -10 -22 -10 -9 0 -13 3 -9 8 4 4 13 7 19 7 7 0 11 12 9 31 -2 22 2 33 13 38 9 3 13 2 10 -4 -3 -6 -2 -10 3 -10 23 0 19 28 -4 34 -14 4 -22 11 -19 16 7 12 26 13 41 2z"/> <path d="M2891 592 c13 -22 25 -39 27 -37 5 5 -27 63 -39 71 -6 3 0 -12 12 -34z"/> <path d="M2800 423 c-19 -2 -41 -11 -47 -20 -19 -25 -16 -80 5 -101 16 -16 28 -18 92 -11 104 11 101 10 98 76 l-3 58 -55 1 c-30 1 -71 -1 -90 -3z m137 -20 c4 -12 -103 -28 -145 -21 -43 6 -22 23 35 29 78 8 106 6 110 -8z m3 -52 c0 -17 -4 -32 -8 -35 -5 -3 -46 -8 -90 -12 l-82 -7 0 37 c0 29 4 36 20 36 11 0 20 -5 20 -11 0 -5 -5 -7 -11 -3 -7 4 -10 -1 -7 -11 5 -29 28 -30 28 -1 0 23 4 25 58 29 31 2 60 4 65 5 4 1 7 -11 7 -27z"/> <path d="M1720 816 l0 -56 395 0 395 0 0 50 0 50 -87 0 c-49 0 -226 3 -395 7 l-308 6 0 -57z m150 25 c7 10 11 8 19 -11 l10 -25 2 30 c1 22 3 25 7 10 5 -20 5 -20 13 0 6 17 8 17 8 3 1 -21 17 -24 24 -5 3 6 6 1 7 -13 l2 -25 8 25 c4 14 9 18 9 10 1 -13 2 -13 11 0 6 10 10 11 10 3 0 -20 20 -15 21 5 1 9 5 4 9 -13 l8 -30 2 30 c1 26 3 27 10 10 6 -13 9 -15 9 -5 1 13 2 13 11 0 9 -13 11 -13 20 0 8 12 10 10 11 -10 1 -23 2 -23 9 5 4 17 8 22 9 13 1 -20 21 -25 21 -6 0 6 9 1 20 -12 l20 -23 0 24 c0 19 2 21 10 9 9 -13 10 -13 10 0 0 13 1 13 10 0 9 -13 11 -13 20 0 8 12 10 10 11 -10 l2 -25 4 24 c4 19 7 21 14 10 7 -12 9 -12 9 1 0 13 1 13 10 0 9 -13 10 -13 10 0 1 9 6 6 16 -10 14 -24 15 -24 11 -2 -3 12 -1 22 4 22 5 0 9 -6 9 -12 0 -9 4 -8 10 2 9 13 10 13 10 0 0 -12 2 -13 9 -1 7 11 10 9 16 -8 8 -28 25 -27 25 2 0 18 2 19 10 7 6 -10 10 -11 10 -2 0 6 5 12 11 12 5 0 7 -4 4 -10 -3 -5 -2 -10 4 -10 5 0 12 6 15 13 3 6 4 0 3 -15 -1 -15 2 -26 8 -25 5 1 8 12 7 25 -2 15 2 22 12 22 12 0 16 -10 16 -37 l0 -38 -385 3 -385 2 0 35 c0 26 4 35 16 35 12 0 15 -7 12 -25 -3 -14 -1 -25 3 -25 5 0 9 7 9 15 0 8 7 15 15 15 8 0 15 6 15 13 1 6 6 2 13 -11 10 -17 15 -20 25 -10 7 7 13 19 13 28 1 10 3 9 6 -4 4 -15 7 -16 13 -5z"/> <path d="M280 515 l0 -246 98 3 97 3 3 243 2 242 -100 0 -100 0 0 -245z m60 5 l0 -230 -26 0 c-14 0 -23 4 -19 10 4 6 11 8 16 5 13 -9 11 9 -3 23 -9 9 -9 15 0 24 17 17 15 28 -5 29 -17 1 -17 2 0 6 9 2 17 9 17 14 0 6 -4 8 -9 4 -5 -3 -12 -1 -16 5 -3 5 2 10 12 11 16 0 16 1 -2 9 -17 7 -17 9 -2 9 9 1 17 6 17 12 0 5 -4 8 -9 4 -5 -3 -12 -1 -16 5 -3 5 2 11 12 11 17 1 17 2 1 6 -10 2 -18 9 -18 14 0 5 8 9 18 10 14 0 14 2 -3 9 -19 8 -19 9 -1 9 20 1 20 1 0 16 -19 14 -19 14 1 15 20 1 20 1 0 10 -19 8 -19 9 -1 9 20 1 20 1 0 16 -19 14 -19 14 1 15 20 1 20 1 0 10 -20 9 -20 9 0 10 20 1 20 2 0 9 -19 8 -19 8 0 19 20 11 20 11 0 13 -17 1 -16 2 5 9 24 8 24 8 3 9 -27 1 -31 21 -5 22 14 0 14 2 -3 9 -19 8 -19 9 -1 9 20 1 20 1 0 16 -18 14 -18 14 8 15 l27 0 1 -230z m70 0 l0 -230 -30 0 -30 0 0 230 0 230 30 0 30 0 0 -230z m50 0 c0 -223 -1 -230 -20 -230 -19 0 -20 7 -20 230 0 223 1 230 20 230 19 0 20 -7 20 -230z"/> <path d="M1210 730 c-30 -5 -90 -8 -132 -9 -76 -1 -108 -7 -108 -20 0 -4 46 -3 103 2 56 5 131 9 167 10 58 2 65 0 67 -18 3 -20 3 -20 -6 0 -6 13 -10 -48 -13 -173 -1 -105 0 -192 4 -192 4 0 9 21 11 48 l3 47 2 -53 2 -53 -34 6 c-18 4 -77 1 -130 -5 -118 -14 -176 -7 -176 22 0 15 5 18 20 13 14 -5 20 -2 20 9 0 9 -9 16 -20 16 -14 0 -20 7 -20 21 0 15 4 19 16 15 23 -9 37 3 23 20 -9 11 -15 11 -25 3 -11 -9 -14 -6 -14 14 0 14 -3 27 -7 30 -10 5 12 -1 32 -9 10 -4 15 0 15 10 0 9 -8 16 -20 16 -13 0 -20 7 -20 19 0 11 -6 22 -12 24 -9 4 -8 6 2 6 9 1 21 -4 28 -11 15 -15 27 -4 19 16 -4 9 -13 13 -22 10 -10 -4 -15 0 -15 14 0 11 -6 23 -12 25 -7 3 -3 6 9 6 12 1 23 -4 25 -11 2 -6 10 -8 16 -4 20 12 3 26 -34 26 -24 0 -34 -5 -34 -15 0 -8 5 -15 10 -15 6 0 10 -7 10 -15 0 -8 -4 -15 -10 -15 -5 0 -10 -7 -10 -15 0 -8 5 -15 10 -15 6 0 10 -7 10 -15 0 -8 -4 -15 -10 -15 -5 0 -10 -7 -10 -15 0 -8 5 -15 10 -15 6 0 10 -7 10 -15 0 -8 -4 -15 -10 -15 -5 0 -10 -7 -10 -15 0 -8 5 -15 10 -15 6 0 10 -7 10 -15 0 -8 -4 -15 -10 -15 -5 0 -10 -7 -10 -15 0 -8 5 -15 10 -15 6 0 10 -5 10 -12 0 -7 12 -25 27 -40 l27 -28 178 0 178 0 0 210 c0 126 -4 210 -9 210 -6 0 -22 11 -37 25 -15 14 -34 24 -43 24 -9 -1 -41 -5 -71 -9z m124 -233 l1 -195 -95 -1 c-52 -1 -91 1 -88 4 3 4 41 7 85 8 l78 2 3 194 c1 107 5 191 8 188 4 -3 7 -93 8 -200z m-27 96 c-2 -16 -4 -3 -4 27 0 30 2 43 4 28 2 -16 2 -40 0 -55z m50 -95 c-3 -7 -5 -2 -5 12 0 14 2 19 5 13 2 -7 2 -19 0 -25z m0 -195 c-3 -10 -5 -4 -5 12 0 17 2 24 5 18 2 -7 2 -21 0 -30z"/> <path d="M3154 727 c-7 -7 -28 -25 -48 -40 -51 -39 -76 -94 -76 -164 1 -105 64 -191 158 -215 50 -12 54 -37 9 -49 -31 -8 -57 -27 -57 -41 0 -5 47 -7 108 -6 63 2 107 7 106 13 -1 6 -18 19 -39 30 -21 11 -40 26 -43 33 -3 11 3 13 50 16 25 2 31 12 19 34 -8 16 -6 21 15 33 33 17 59 54 74 104 16 54 0 113 -43 162 -38 44 -82 63 -141 63 -35 0 -48 5 -56 20 -12 23 -20 24 -36 7z m-4 -57 c-39 -33 -27 -42 13 -10 14 11 33 20 44 19 15 0 14 -2 -5 -11 -13 -6 -21 -16 -19 -22 3 -6 -7 -12 -20 -12 -27 -2 -40 -11 -30 -20 4 -4 13 -1 21 5 9 7 17 8 20 2 7 -11 -51 -72 -66 -68 -6 1 -13 -4 -16 -12 -3 -10 0 -12 12 -8 10 4 24 7 32 7 8 0 11 6 8 15 -4 9 3 19 20 26 14 7 26 20 26 29 0 17 35 21 57 7 12 -7 11 -13 -2 -60 -8 -31 7 -57 35 -57 12 0 22 -13 32 -42 16 -52 45 -58 66 -15 7 15 18 24 24 21 7 -4 6 -9 -2 -14 -6 -4 -11 -11 -9 -15 4 -14 -64 -75 -86 -77 -47 -3 -110 3 -122 13 -7 6 -18 26 -25 45 -6 19 -15 34 -19 34 -11 0 -19 29 -13 45 4 8 14 15 24 15 10 0 23 -7 30 -15 7 -8 19 -15 26 -15 12 0 12 -6 -1 -36 -8 -20 -15 -44 -14 -53 0 -13 1 -13 6 -1 2 8 11 30 19 48 16 34 12 52 -10 52 -8 0 -19 6 -25 14 -14 16 -71 27 -71 13 0 -5 -7 -4 -15 3 -20 16 -19 28 5 75 23 45 19 59 -6 20 -28 -43 -30 -116 -4 -170 32 -66 86 -100 162 -100 32 0 58 -3 58 -7 0 -5 -24 -8 -53 -8 -130 0 -230 119 -197 234 7 23 12 49 13 58 1 9 3 15 6 13 2 -3 21 11 43 30 21 19 44 35 51 35 6 0 -4 -14 -23 -30z m129 14 c31 -6 31 -7 11 -21 -11 -8 -20 -21 -20 -29 0 -8 -5 -14 -11 -14 -5 0 -9 8 -7 18 2 11 -3 26 -11 35 -15 19 -9 20 38 11z m-39 -28 c0 -7 -9 -16 -20 -19 -22 -6 -29 18 -7 26 21 9 27 7 27 -7z m120 -11 c37 -24 57 -64 59 -120 1 -43 -2 -56 -11 -52 -7 2 -11 11 -9 18 13 47 13 62 1 54 -8 -5 -21 3 -37 21 -19 22 -33 29 -63 29 -30 0 -36 2 -28 12 6 7 16 13 24 13 7 0 16 5 20 11 4 8 -1 9 -17 4 -20 -7 -22 -6 -12 7 14 16 50 18 73 3z m-50 -65 c0 -5 6 -7 14 -4 7 3 23 -6 34 -20 11 -14 25 -26 31 -26 13 0 14 -5 2 -28 -5 -9 -15 -32 -21 -49 -13 -35 -39 -45 -41 -15 -3 49 -17 72 -44 72 -51 0 -34 74 18 79 4 1 7 -3 7 -9z m-200 -99 c0 -11 5 -23 10 -26 14 -8 43 -66 36 -72 -2 -3 -18 14 -35 38 -31 41 -40 79 -21 79 6 0 10 -9 10 -19z m158 -168 c-10 -2 -28 -2 -40 0 -13 2 -5 4 17 4 22 1 32 -1 23 -4z m24 -63 c17 -6 7 -9 -42 -9 -54 1 -60 2 -39 10 15 6 30 20 33 32 l7 22 9 -23 c5 -12 20 -27 32 -32z"/> <path d="M3385 570 c3 -5 11 -10 16 -10 6 0 7 5 4 10 -3 6 -11 10 -16 10 -6 0 -7 -4 -4 -10z"/> <path d="M1873 719 c-43 -13 -83 -62 -83 -104 0 -74 37 -109 153 -145 76 -24 101 -49 86 -88 -8 -22 -8 -23 6 -12 8 7 15 17 15 23 0 11 30 36 43 37 12 0 -2 -60 -20 -87 -16 -24 -33 -30 -33 -13 0 10 -11 24 -60 79 -38 41 -94 43 -139 5 -17 -14 -31 -22 -31 -18 0 4 -9 -1 -20 -11 -13 -12 -20 -29 -18 -44 2 -21 10 -27 38 -33 19 -4 53 -12 75 -19 25 -7 61 -9 96 -5 46 6 62 13 90 42 29 30 34 42 34 85 0 45 -4 54 -37 84 -33 31 -55 40 -141 59 -15 4 -37 16 -48 27 -18 18 -19 23 -6 42 22 34 77 34 115 2 l31 -26 31 22 c16 13 30 26 30 29 0 3 -13 18 -28 33 -45 43 -110 56 -179 36z m147 -27 l25 -16 -35 -9 c-22 -6 -29 -12 -20 -15 8 -3 18 -10 23 -16 5 -7 14 -3 27 13 11 13 20 17 20 10 0 -7 -7 -20 -16 -30 -15 -17 -17 -17 -45 3 -15 12 -26 25 -23 29 7 12 -87 1 -102 -12 -8 -6 -14 -18 -14 -25 0 -8 -4 -14 -10 -14 -5 0 -10 9 -10 19 0 23 48 83 60 76 5 -3 12 -1 15 5 8 14 72 3 105 -18z m-177 -33 c-10 -19 -21 -35 -25 -37 -30 -13 21 -79 75 -98 17 -6 33 -16 35 -22 12 -36 -93 19 -114 59 -19 38 -13 84 18 116 28 30 33 23 11 -18z m197 -3 c0 -3 -4 -8 -10 -11 -5 -3 -10 -1 -10 4 0 6 5 11 10 11 6 0 10 -2 10 -4z m-200 -62 c0 -8 -4 -12 -10 -9 -5 3 -10 10 -10 16 0 5 5 9 10 9 6 0 10 -7 10 -16z m65 -48 c24 -12 26 -15 10 -16 -27 0 -65 27 -65 47 0 15 1 15 13 1 6 -9 26 -23 42 -32z m55 -48 c0 -10 -4 -18 -10 -18 -5 0 -10 15 -10 33 0 24 3 28 10 17 5 -8 10 -23 10 -32z m83 5 c32 -16 33 -20 10 -45 -9 -10 -11 -18 -5 -18 6 0 14 5 17 10 3 6 11 10 18 10 6 0 2 -9 -9 -21 l-21 -21 -26 26 c-14 14 -33 26 -42 26 -10 0 -15 10 -15 31 0 27 3 30 23 23 12 -3 34 -13 50 -21z m-58 -131 c11 -17 26 -31 33 -32 6 0 12 -9 12 -20 0 -16 -4 -18 -23 -11 -13 5 -40 8 -60 7 -20 -2 -37 1 -37 5 0 4 -20 7 -45 5 -25 -1 -45 1 -45 5 0 4 -8 6 -18 4 -11 -2 -19 3 -19 11 0 8 8 14 17 14 10 0 24 7 31 17 8 9 27 24 43 34 25 15 34 16 60 5 17 -7 40 -26 51 -44z m-27 -79 c-10 -2 -26 -2 -35 0 -10 3 -2 5 17 5 19 0 27 -2 18 -5z"/> <path d="M1920 702 c0 -11 22 -32 34 -32 5 0 1 7 -10 15 -26 20 -4 19 24 -1 13 -9 26 -14 29 -11 5 6 -50 37 -67 37 -5 0 -10 -4 -10 -8z"/> <path d="M1980 507 c0 -2 14 -13 30 -25 17 -13 30 -19 30 -14 0 4 -13 16 -30 25 -16 10 -30 16 -30 14z"/> <path d="M1866 381 c-21 -23 -16 -27 52 -36 57 -8 66 1 32 35 -25 25 -62 26 -84 1z m72 -3 c20 -20 14 -24 -28 -20 -39 4 -52 16 -27 25 22 9 43 7 55 -5z"/> <path d="M2265 703 c-44 -23 -74 -53 -96 -95 -42 -82 -34 -157 26 -235 29 -39 32 -47 25 -85 -5 -24 -7 -45 -5 -46 2 -2 13 15 25 37 18 36 23 40 41 31 25 -14 93 -17 140 -7 34 7 37 5 54 -27 24 -44 28 -40 17 12 -9 38 -8 41 21 63 l31 22 -33 28 c-19 16 -40 25 -51 22 -14 -4 -25 7 -45 47 -15 29 -24 58 -21 65 2 7 -1 21 -8 31 -18 27 -26 74 -12 74 6 0 28 -13 47 -30 l36 -29 32 33 31 32 -22 21 c-59 53 -168 70 -233 36z m170 -12 c58 -26 70 -43 45 -66 -20 -18 -21 -18 -43 2 -35 31 -113 31 -160 -1 -36 -25 -50 -21 -24 6 6 7 19 22 27 32 15 19 14 19 -12 2 -16 -10 -29 -26 -29 -35 -1 -9 -3 -23 -3 -31 -1 -8 -7 -34 -14 -57 -10 -34 -10 -48 2 -80 21 -57 26 -87 16 -103 -7 -11 -12 -10 -29 11 -19 22 -22 30 -20 45 0 4 -4 10 -11 14 -19 12 -23 114 -5 157 44 104 159 150 260 104z m-95 -79 c0 -17 8 -32 21 -40 16 -11 18 -16 9 -28 -16 -19 -30 -18 -30 2 0 11 6 14 18 10 14 -5 14 -4 -2 9 -11 8 -23 15 -27 15 -11 0 -21 -38 -14 -50 5 -9 -40 -110 -50 -110 -2 0 -11 13 -20 30 -31 60 -10 135 48 170 42 26 47 25 47 -8z m-4 -64 c-1 -17 4 -23 21 -22 12 0 20 -3 17 -8 -15 -24 -61 9 -50 37 8 21 13 19 12 -7z m-26 -94 c-12 -27 -26 -60 -31 -73 -5 -13 -12 -21 -16 -17 -3 3 9 37 27 76 38 79 51 88 20 14z m156 -93 c-8 38 15 55 38 30 17 -19 17 -20 -8 -37 -20 -12 -25 -22 -21 -38 11 -37 -13 2 -55 93 -55 115 -50 126 6 16 25 -50 43 -78 40 -64z m-73 84 l27 -55 -28 -6 c-15 -3 -32 -7 -38 -9 -6 -2 -17 1 -25 6 -14 9 9 13 56 10 18 -1 17 0 -4 12 -20 12 -28 12 -50 1 -14 -8 -27 -10 -29 -6 -5 15 39 102 51 102 7 0 25 -25 40 -55z m-51 -82 c10 -3 31 0 48 6 28 9 32 8 42 -14 14 -30 10 -34 -35 -42 -38 -6 -93 2 -116 16 -20 13 5 55 27 46 9 -4 25 -9 34 -12z m-96 -50 c-8 -15 -15 -22 -16 -15 0 17 20 55 27 49 2 -3 -2 -18 -11 -34z"/> <path d="M2430 661 c0 -6 9 -15 20 -21 13 -7 20 -7 20 -1 0 6 -9 15 -20 21 -13 7 -20 7 -20 1z"/> <path d="M2211 614 c0 -11 3 -14 6 -6 3 7 2 16 -1 19 -3 4 -6 -2 -5 -13z"/> <path d="M2175 539 c-4 -6 -5 -12 -2 -15 2 -3 7 2 10 11 7 17 1 20 -8 4z"/> <path d="M2181 498 c-1 -26 17 -68 30 -68 8 0 8 4 0 14 -7 8 -16 27 -21 43 -4 15 -9 20 -9 11z"/> <path d="M2205 400 c10 -11 20 -20 22 -20 2 0 -1 9 -7 20 -6 11 -16 20 -22 20 -6 0 -3 -9 7 -20z"/> <path d="M2309 339 c14 -6 28 -6 33 -1 5 5 -5 9 -24 10 -31 0 -31 -1 -9 -9z"/> <path d="M3635 705 c-22 -8 -48 -15 -57 -15 -11 0 -18 -8 -18 -19 0 -10 -7 -24 -16 -32 -52 -43 -66 -171 -26 -247 28 -53 87 -96 152 -112 40 -10 58 -9 103 4 30 9 60 23 67 31 16 20 12 19 -35 -5 -94 -48 -224 -8 -271 83 -14 25 -13 27 6 27 12 0 33 -14 48 -31 40 -48 74 -58 187 -54 112 4 120 9 150 95 19 54 19 85 0 142 -40 116 -170 176 -290 133z m191 -30 c43 -25 76 -66 58 -72 -29 -10 -32 -19 -22 -59 13 -46 3 -117 -15 -111 -16 5 -22 57 -6 57 8 0 6 6 -4 18 -20 22 -22 38 -4 45 7 3 13 18 12 33 0 16 4 32 10 36 5 4 0 8 -11 8 -25 0 -74 23 -84 40 -4 6 -33 14 -66 17 -48 6 -54 8 -34 14 42 13 120 1 166 -26z m-146 -17 c0 -9 -16 -12 -55 -10 -67 5 -63 22 6 22 32 0 49 -4 49 -12z m70 -4 c0 -8 4 -13 8 -10 4 2 14 0 22 -6 11 -7 6 -8 -19 -4 -18 3 -42 6 -52 6 -12 0 -16 5 -13 15 8 20 54 20 54 -1z m-90 -61 c0 -21 -5 -23 -55 -23 -50 0 -55 2 -55 23 0 20 5 22 55 22 50 0 55 -2 55 -22z m50 20 c0 -5 27 -6 60 -5 50 3 60 1 60 -12 0 -13 -13 -16 -62 -17 -50 -1 -57 -3 -33 -9 l30 -8 -32 -1 c-29 -1 -33 2 -34 27 l-1 27 -7 -30 -7 -30 -5 33 c-5 26 -2 32 13 32 10 0 18 -3 18 -7z m-170 -25 c-4 -47 0 -78 11 -78 6 0 9 9 6 20 -4 17 0 20 34 20 32 0 39 -3 39 -20 0 -16 -7 -20 -37 -22 -21 0 -46 -1 -55 0 -22 2 -23 -11 -4 -27 8 -6 16 -21 19 -31 4 -16 0 -20 -19 -20 -21 0 -24 5 -25 38 -2 58 1 85 13 115 13 33 20 35 18 5z m374 -20 c13 -50 6 -124 -16 -168 -13 -24 -27 -43 -33 -42 -17 2 -17 39 -1 71 18 33 21 108 6 131 -6 9 -5 17 3 22 21 13 35 9 41 -14z m-267 -55 c-3 -10 -5 -2 -5 17 0 19 2 27 5 18 2 -10 2 -26 0 -35z m28 12 c0 -14 -3 -25 -7 -25 -4 0 -8 14 -8 32 0 36 13 30 15 -7z m135 5 c0 -18 -7 -20 -65 -20 -50 0 -65 3 -65 14 0 11 15 16 53 19 28 2 58 4 65 5 6 1 12 -7 12 -18z m-153 -87 c-3 -10 -5 -2 -5 17 0 19 2 27 5 18 2 -10 2 -26 0 -35z m117 37 c35 0 42 -3 43 -20 2 -18 -4 -20 -52 -20 -48 0 -54 2 -58 23 -4 18 -5 17 -7 -8 l-2 -30 -8 30 -8 30 -1 -32 c0 -17 -5 -35 -11 -38 -5 -3 -10 -17 -10 -31 0 -31 -20 -31 -49 0 l-23 25 38 3 c37 3 39 5 42 42 3 37 4 38 34 32 17 -3 49 -6 72 -6z m-134 -20 c0 -16 -7 -20 -35 -20 -24 0 -37 6 -45 20 -10 19 -8 20 35 20 38 0 45 -3 45 -20z m55 -80 c0 -16 -3 -30 -7 -30 -5 0 -8 14 -8 30 0 17 3 30 8 30 4 0 7 -13 7 -30z m138 0 c-5 -17 -14 -20 -64 -20 -56 0 -77 10 -64 30 3 6 35 10 70 10 58 0 63 -2 58 -20z"/> <path d="M944 669 c-3 -6 1 -18 10 -27 15 -15 16 -15 16 1 0 9 -5 17 -12 17 -6 0 -8 3 -5 7 4 3 18 0 32 -7 26 -14 42 -9 30 9 -8 14 -62 14 -71 0z"/> <path d="M1176 669 c-32 -5 -62 -12 -65 -15 -3 -4 16 -4 43 0 27 3 62 6 77 6 16 0 29 5 29 10 0 11 -1 11 -84 -1z"/> <path d="M1035 659 c-4 -5 -4 -21 -1 -35 5 -19 13 -24 36 -24 28 0 30 3 30 35 0 32 -2 35 -29 35 -17 0 -33 -5 -36 -11z m55 -30 c0 -15 -4 -19 -16 -15 -9 3 -18 6 -20 6 -2 0 -4 7 -4 15 0 8 9 15 20 15 14 0 20 -7 20 -21z"/> <path d="M1155 640 l-50 -7 50 0 c28 0 64 3 80 7 l30 8 -30 -1 c-16 0 -52 -3 -80 -7z"/> <path d="M1183 621 c-34 -3 -65 -10 -70 -15 -5 -5 9 -6 32 -3 22 4 57 7 78 7 20 0 37 5 37 10 0 6 -3 9 -7 8 -5 0 -36 -4 -70 -7z"/> <path d="M1905 619 c-8 -12 23 -49 42 -49 18 0 16 47 -3 54 -22 9 -32 7 -39 -5z m45 -29 c0 -5 -4 -10 -10 -10 -5 0 -10 5 -10 10 0 6 5 10 10 10 6 0 10 -4 10 -10z"/> <path d="M1123 593 c-46 -2 -83 -8 -83 -13 0 -10 147 -3 195 10 l30 8 -30 -1 c-16 -1 -67 -3 -112 -4z"/> <path d="M1095 560 l-60 -7 60 0 c33 -1 85 2 115 7 l55 7 -55 0 c-30 0 -82 -3 -115 -7z"/> <path d="M1450 520 l0 -40 130 0 130 0 0 40 0 40 -130 0 -130 0 0 -40z m250 3 l0 -28 -120 0 -120 0 0 28 0 27 120 0 120 0 0 -27z"/> <path d="M1553 523 c9 -2 23 -2 30 0 6 3 -1 5 -18 5 -16 0 -22 -2 -12 -5z"/> <path d="M1498 513 c7 -3 16 -2 19 1 4 3 -2 6 -13 5 -11 0 -14 -3 -6 -6z"/> <path d="M1628 513 c7 -3 16 -2 19 1 4 3 -2 6 -13 5 -11 0 -14 -3 -6 -6z"/> <path d="M1123 543 c-49 -2 -83 -8 -83 -14 0 -12 171 -2 205 12 16 6 14 7 -10 6 -16 0 -67 -3 -112 -4z"/> <path d="M1190 520 c-30 -5 -80 -9 -110 -11 -43 -2 -47 -3 -20 -6 50 -7 200 7 200 18 0 5 -3 8 -7 8 -5 -1 -33 -5 -63 -9z"/> <path d="M1182 463 c-25 -10 -34 -53 -17 -79 29 -45 95 -19 95 37 0 41 -34 60 -78 42z m58 -18 c29 -35 -21 -93 -55 -65 -20 17 -19 57 3 69 24 14 38 13 52 -4z"/> <path d="M1203 433 c-15 -3 -23 -12 -23 -25 0 -21 0 -21 21 -2 12 10 24 18 27 16 4 -2 8 1 10 7 2 6 0 10 -5 10 -4 -1 -18 -4 -30 -6z"/> </g> </svg> 